ISO-10303-21;
HEADER;

/* File generated by HOOPS Exchange Version 25.8.0 */

FILE_DESCRIPTION(('HOOPS Exchange Step'),'2;1');

FILE_NAME('E:\\Product_Projects\\Boxart\\Publish\\3DPrint\\Drawer.stp',
'2026-08-24T15:13:08-07:00',
('mail'),
('Unknown organisation'),
'HOOPS Exchange 2025.8',
'HOOPS Exchange',
'Unknown authorisation');

FILE_SCHEMA( ('AP203_CONFIGURATION_CONTROLLED_3D_DESIGN_OF_MECHANICAL_PARTS_AND_ASSEMBLIES_MIM_LF') );

ENDSEC;

DATA;
#3=(NAMED_UNIT(*)PLANE_ANGLE_UNIT()SI_UNIT($,.RADIAN.));
#4=PLANE_ANGLE_MEASURE_WITH_UNIT(PLANE_ANGLE_MEASURE(0.0174532925),#3);
#5=(CONVERSION_BASED_UNIT('DEGREE',#4)NAMED_UNIT(#6)PLANE_ANGLE_UNIT());
#6=DIMENSIONAL_EXPONENTS(0.,0.,0.,0.,0.,0.,0.);
#7=(NAMED_UNIT(*)SI_UNIT($,.STERADIAN.)SOLID_ANGLE_UNIT());
#8=(LENGTH_UNIT()NAMED_UNIT(*)SI_UNIT(.MILLI.,.METRE.));
#9=UNCERTAINTY_MEASURE_WITH_UNIT(LENGTH_MEASURE(1.000000E-03),#8,'DISTANCE_ACCURACY_VALUE','Maximum Tolerance applied to model');
#10=(GEOMETRIC_REPRESENTATION_CONTEXT(3)GLOBAL_UNCERTAINTY_ASSIGNED_CONTEXT((#9))GLOBAL_UNIT_ASSIGNED_CONTEXT((#8,#5,#7))REPRESENTATION_CONTEXT('','root'));
#12=CARTESIAN_POINT('',(0.,0.,0.));
#13=DIRECTION('',(0.,0.,1.));
#14=DIRECTION('',(1.,0.,0.));
#15=AXIS2_PLACEMENT_3D('',#12,#13,#14);
#26=(NAMED_UNIT(*)PLANE_ANGLE_UNIT()SI_UNIT($,.RADIAN.));
#27=PLANE_ANGLE_MEASURE_WITH_UNIT(PLANE_ANGLE_MEASURE(0.0174532925),#26);
#28=(CONVERSION_BASED_UNIT('DEGREE',#27)NAMED_UNIT(#29)PLANE_ANGLE_UNIT());
#29=DIMENSIONAL_EXPONENTS(0.,0.,0.,0.,0.,0.,0.);
#30=(NAMED_UNIT(*)SI_UNIT($,.STERADIAN.)SOLID_ANGLE_UNIT());
#31=(LENGTH_UNIT()NAMED_UNIT(*)SI_UNIT(.MILLI.,.METRE.));
#32=UNCERTAINTY_MEASURE_WITH_UNIT(LENGTH_MEASURE(1.000000E-05),#31,'DISTANCE_ACCURACY_VALUE','Maximum Tolerance applied to model');
#33=(GEOMETRIC_REPRESENTATION_CONTEXT(3)GLOBAL_UNCERTAINTY_ASSIGNED_CONTEXT((#32))GLOBAL_UNIT_ASSIGNED_CONTEXT((#31,#28,#30))REPRESENTATION_CONTEXT('','0'));
#35=CARTESIAN_POINT('',(0.,0.,0.));
#36=DIRECTION('',(0.,0.,1.));
#37=DIRECTION('',(1.,0.,0.));
#38=AXIS2_PLACEMENT_3D('',#35,#36,#37);
#49=CARTESIAN_POINT('',(0.,0.,0.));
#50=DIRECTION('',(0.,0.,1.));
#51=DIRECTION('',(1.,0.,-0.));
#52=AXIS2_PLACEMENT_3D('',#49,#50,#51);
#53=ITEM_DEFINED_TRANSFORMATION('','',#52,#38);
#54=(REPRESENTATION_RELATIONSHIP('','',#39,#16)REPRESENTATION_RELATIONSHIP_WITH_TRANSFORMATION(#53)SHAPE_REPRESENTATION_RELATIONSHIP());
#55=NEXT_ASSEMBLY_USAGE_OCCURRENCE('Drawer_1','Drawer','Drawer',#25,#48,$);
#56=PRODUCT_DEFINITION_SHAPE('','',#55);
#57=CONTEXT_DEPENDENT_SHAPE_REPRESENTATION(#54,#56);
#59=CARTESIAN_POINT('',(47.5,-60.460711035,-4.4));
#60=DIRECTION('',(0.,0.,-1.));
#61=DIRECTION('',(1.,0.,0.));
#62=AXIS2_PLACEMENT_3D('',#59,#60,#61);
#63=PLANE('',#62);
#64=CARTESIAN_POINT('',(-15.,-61.960711035,-4.4));
#65=VERTEX_POINT('',#64);
#66=CARTESIAN_POINT('',(15.,-61.960711035,-4.4));
#67=VERTEX_POINT('',#66);
#68=CARTESIAN_POINT('',(-15.,-61.960711035,-4.4));
#69=DIRECTION('',(1.,0.,-0.));
#70=VECTOR('',#69,30.);
#71=LINE('',#68,#70);
#72=EDGE_CURVE('',#65,#67,#71,.T.);
#73=ORIENTED_EDGE('',*,*,#72,.F.);
#74=CARTESIAN_POINT('',(-15.,-59.460711035,-4.4));
#75=VERTEX_POINT('',#74);
#76=CARTESIAN_POINT('',(-15.,-61.960711035,-4.4));
#77=DIRECTION('',(0.,1.,0.));
#78=VECTOR('',#77,2.5);
#79=LINE('',#76,#78);
#80=EDGE_CURVE('',#65,#75,#79,.T.);
#81=ORIENTED_EDGE('',*,*,#80,.T.);
#82=CARTESIAN_POINT('',(15.,-59.460711035,-4.4));
#83=VERTEX_POINT('',#82);
#84=CARTESIAN_POINT('',(-15.,-59.460711035,-4.4));
#85=DIRECTION('',(1.,0.,-0.));
#86=VECTOR('',#85,30.);
#87=LINE('',#84,#86);
#88=EDGE_CURVE('',#75,#83,#87,.T.);
#89=ORIENTED_EDGE('',*,*,#88,.T.);
#90=CARTESIAN_POINT('',(15.,-61.960711035,-4.4));
#91=DIRECTION('',(-0.,1.,-0.));
#92=VECTOR('',#91,2.5);
#93=LINE('',#90,#92);
#94=EDGE_CURVE('',#67,#83,#93,.T.);
#95=ORIENTED_EDGE('',*,*,#94,.F.);
#96=EDGE_LOOP('',(#73,#81,#89,#95));
#97=FACE_BOUND('',#96,.T.);
#98=ADVANCED_FACE('',(#97),#63,.T.);
#99=CARTESIAN_POINT('',(-15.,-69.578310893,-4.4));
#100=DIRECTION('',(-1.,0.,-0.));
#101=DIRECTION('',(0.,0.,-1.));
#102=AXIS2_PLACEMENT_3D('',#99,#100,#101);
#103=PLANE('',#102);
#104=CARTESIAN_POINT('',(-15.,-58.919882566,-4.4));
#105=VERTEX_POINT('',#104);
#106=CARTESIAN_POINT('',(-15.,-42.960711035,-4.4));
#107=VERTEX_POINT('',#106);
#108=CARTESIAN_POINT('',(-15.,-58.919882566,-4.4));
#109=DIRECTION('',(0.,1.,0.));
#110=VECTOR('',#109,15.959171531);
#111=LINE('',#108,#110);
#112=EDGE_CURVE('',#105,#107,#111,.T.);
#113=ORIENTED_EDGE('',*,*,#112,.T.);
#114=CARTESIAN_POINT('',(-15.,-42.960711035,-4.));
#115=VERTEX_POINT('',#114);
#116=CARTESIAN_POINT('',(-15.,-42.960711035,-4.));
#117=DIRECTION('',(0.,0.,-1.));
#118=VECTOR('',#117,0.4);
#119=LINE('',#116,#118);
#120=EDGE_CURVE('',#115,#107,#119,.T.);
#121=ORIENTED_EDGE('',*,*,#120,.F.);
#122=CARTESIAN_POINT('',(-15.,-58.919882566,-4.));
#123=VERTEX_POINT('',#122);
#124=CARTESIAN_POINT('',(-15.,-58.919882566,-4.));
#125=DIRECTION('',(0.,1.,0.));
#126=VECTOR('',#125,15.959171531);
#127=LINE('',#124,#126);
#128=EDGE_CURVE('',#123,#115,#127,.T.);
#129=ORIENTED_EDGE('',*,*,#128,.F.);
#130=CARTESIAN_POINT('',(-15.,-58.919882566,-4.4));
#131=DIRECTION('',(0.,0.,1.));
#132=VECTOR('',#131,0.4);
#133=LINE('',#130,#132);
#134=EDGE_CURVE('',#105,#123,#133,.T.);
#135=ORIENTED_EDGE('',*,*,#134,.F.);
#136=EDGE_LOOP('',(#113,#121,#129,#135));
#137=FACE_BOUND('',#136,.T.);
#138=ADVANCED_FACE('',(#137),#103,.F.);
#139=CARTESIAN_POINT('',(15.,-69.578310893,-4.4));
#140=DIRECTION('',(1.,0.,0.));
#141=DIRECTION('',(0.,0.,-1.));
#142=AXIS2_PLACEMENT_3D('',#139,#140,#141);
#143=PLANE('',#142);
#144=CARTESIAN_POINT('',(15.,-58.919882566,-4.4));
#145=VERTEX_POINT('',#144);
#146=CARTESIAN_POINT('',(15.,-58.919882566,-4.));
#147=VERTEX_POINT('',#146);
#148=CARTESIAN_POINT('',(15.,-58.919882566,-4.4));
#149=DIRECTION('',(0.,0.,1.));
#150=VECTOR('',#149,0.4);
#151=LINE('',#148,#150);
#152=EDGE_CURVE('',#145,#147,#151,.T.);
#153=ORIENTED_EDGE('',*,*,#152,.F.);
#154=CARTESIAN_POINT('',(15.,-59.460711035,-4.4));
#155=DIRECTION('',(0.,1.,0.));
#156=VECTOR('',#155,0.540828469);
#157=LINE('',#154,#156);
#158=EDGE_CURVE('',#83,#145,#157,.T.);
#159=ORIENTED_EDGE('',*,*,#158,.F.);
#160=CARTESIAN_POINT('',(15.,-59.460711035,-4.));
#161=VERTEX_POINT('',#160);
#162=CARTESIAN_POINT('',(15.,-59.460711035,-4.4));
#163=DIRECTION('',(0.,0.,1.));
#164=VECTOR('',#163,0.4);
#165=LINE('',#162,#164);
#166=EDGE_CURVE('',#83,#161,#165,.T.);
#167=ORIENTED_EDGE('',*,*,#166,.T.);
#168=CARTESIAN_POINT('',(15.,-59.460711035,-4.));
#169=DIRECTION('',(0.,1.,0.));
#170=VECTOR('',#169,0.540828469);
#171=LINE('',#168,#170);
#172=EDGE_CURVE('',#161,#147,#171,.T.);
#173=ORIENTED_EDGE('',*,*,#172,.T.);
#174=EDGE_LOOP('',(#153,#159,#167,#173));
#175=FACE_BOUND('',#174,.T.);
#176=ADVANCED_FACE('',(#175),#143,.F.);
#177=CARTESIAN_POINT('',(0.,-59.460711035,-5.));
#178=DIRECTION('',(0.,-1.,0.));
#179=DIRECTION('',(0.,0.,-1.));
#180=AXIS2_PLACEMENT_3D('',#177,#178,#179);
#181=PLANE('',#180);
#182=CARTESIAN_POINT('',(15.,-59.460711035,-1.5));
#183=VERTEX_POINT('',#182);
#184=CARTESIAN_POINT('',(15.,-59.460711035,-4.));
#185=DIRECTION('',(-0.,-0.,1.));
#186=VECTOR('',#185,2.5);
#187=LINE('',#184,#186);
#188=EDGE_CURVE('',#161,#183,#187,.T.);
#189=ORIENTED_EDGE('',*,*,#188,.F.);
#190=ORIENTED_EDGE('',*,*,#166,.F.);
#191=ORIENTED_EDGE('',*,*,#88,.F.);
#192=CARTESIAN_POINT('',(-15.,-59.460711035,-4.));
#193=VERTEX_POINT('',#192);
#194=CARTESIAN_POINT('',(-15.,-59.460711035,-4.4));
#195=DIRECTION('',(-0.,0.,1.));
#196=VECTOR('',#195,0.4);
#197=LINE('',#194,#196);
#198=EDGE_CURVE('',#75,#193,#197,.T.);
#199=ORIENTED_EDGE('',*,*,#198,.T.);
#200=CARTESIAN_POINT('',(-15.,-59.460711035,-1.5));
#201=VERTEX_POINT('',#200);
#202=CARTESIAN_POINT('',(-15.,-59.460711035,-1.5));
#203=DIRECTION('',(0.,0.,-1.));
#204=VECTOR('',#203,2.5);
#205=LINE('',#202,#204);
#206=EDGE_CURVE('',#201,#193,#205,.T.);
#207=ORIENTED_EDGE('',*,*,#206,.F.);
#208=CARTESIAN_POINT('',(-15.,-59.460711035,-1.5));
#209=DIRECTION('',(1.,0.,0.));
#210=VECTOR('',#209,30.);
#211=LINE('',#208,#210);
#212=EDGE_CURVE('',#201,#183,#211,.T.);
#213=ORIENTED_EDGE('',*,*,#212,.T.);
#214=EDGE_LOOP('',(#189,#190,#191,#199,#207,#213));
#215=FACE_BOUND('',#214,.T.);
#216=ADVANCED_FACE('',(#215),#181,.F.);
#217=CARTESIAN_POINT('',(0.,-59.460711035,-5.));
#218=DIRECTION('',(0.,-1.,0.));
#219=DIRECTION('',(0.,0.,-1.));
#220=AXIS2_PLACEMENT_3D('',#217,#218,#219);
#221=PLANE('',#220);
#222=CARTESIAN_POINT('',(47.539207212,-59.460711035,-4.));
#223=VERTEX_POINT('',#222);
#224=CARTESIAN_POINT('',(15.,-59.460711035,-4.));
#225=DIRECTION('',(1.,0.,0.));
#226=VECTOR('',#225,32.539207212);
#227=LINE('',#224,#226);
#228=EDGE_CURVE('',#161,#223,#227,.T.);
#229=ORIENTED_EDGE('',*,*,#228,.F.);
#230=ORIENTED_EDGE('',*,*,#188,.T.);
#231=CARTESIAN_POINT('',(47.539207212,-59.460711035,-1.5));
#232=VERTEX_POINT('',#231);
#233=CARTESIAN_POINT('',(15.,-59.460711035,-1.5));
#234=DIRECTION('',(1.,0.,0.));
#235=VECTOR('',#234,32.539207212);
#236=LINE('',#233,#235);
#237=EDGE_CURVE('',#183,#232,#236,.T.);
#238=ORIENTED_EDGE('',*,*,#237,.T.);
#239=CARTESIAN_POINT('',(47.539207212,-59.460711035,-4.));
#240=DIRECTION('',(0.,0.,1.));
#241=VECTOR('',#240,2.5);
#242=LINE('',#239,#241);
#243=EDGE_CURVE('',#223,#232,#242,.T.);
#244=ORIENTED_EDGE('',*,*,#243,.F.);
#245=EDGE_LOOP('',(#229,#230,#238,#244));
#246=FACE_BOUND('',#245,.T.);
#247=ADVANCED_FACE('',(#246),#221,.F.);
#248=CARTESIAN_POINT('',(-47.539207212,-26.692369,-284.926323385));
#249=DIRECTION('',(-1.,0.,-0.));
#250=DIRECTION('',(0.,0.,-1.));
#251=AXIS2_PLACEMENT_3D('',#248,#249,#250);
#252=PLANE('',#251);
#253=CARTESIAN_POINT('',(-47.539207212,-59.460711035,-4.));
#254=VERTEX_POINT('',#253);
#255=CARTESIAN_POINT('',(-47.539207212,65.553143721,-4.));
#256=VERTEX_POINT('',#255);
#257=CARTESIAN_POINT('',(-47.539207212,-59.460711035,-4.));
#258=DIRECTION('',(0.,1.,0.));
#259=VECTOR('',#258,125.013854756);
#260=LINE('',#257,#259);
#261=EDGE_CURVE('',#254,#256,#260,.T.);
#262=ORIENTED_EDGE('',*,*,#261,.T.);
#263=CARTESIAN_POINT('',(-47.539207212,65.553143721,-1.5));
#264=VERTEX_POINT('',#263);
#265=CARTESIAN_POINT('',(-47.539207212,65.553143721,-4.));
#266=DIRECTION('',(-0.,0.,1.));
#267=VECTOR('',#266,2.5);
#268=LINE('',#265,#267);
#269=EDGE_CURVE('',#256,#264,#268,.T.);
#270=ORIENTED_EDGE('',*,*,#269,.T.);
#271=CARTESIAN_POINT('',(-47.539207212,-59.460711035,-1.5));
#272=VERTEX_POINT('',#271);
#273=CARTESIAN_POINT('',(-47.539207212,-59.460711035,-1.5));
#274=DIRECTION('',(0.,1.,0.));
#275=VECTOR('',#274,125.013854756);
#276=LINE('',#273,#275);
#277=EDGE_CURVE('',#272,#264,#276,.T.);
#278=ORIENTED_EDGE('',*,*,#277,.F.);
#279=CARTESIAN_POINT('',(-47.539207212,-59.460711035,-4.));
#280=DIRECTION('',(-0.,0.,1.));
#281=VECTOR('',#280,2.5);
#282=LINE('',#279,#281);
#283=EDGE_CURVE('',#254,#272,#282,.T.);
#284=ORIENTED_EDGE('',*,*,#283,.F.);
#285=EDGE_LOOP('',(#262,#270,#278,#284));
#286=FACE_BOUND('',#285,.T.);
#287=ADVANCED_FACE('',(#286),#252,.F.);
#288=CARTESIAN_POINT('',(-0.,3.046216343,-4.));
#289=DIRECTION('',(-0.,0.,1.));
#290=DIRECTION('',(1.,0.,0.));
#291=AXIS2_PLACEMENT_3D('',#288,#289,#290);
#292=PLANE('',#291);
#293=CARTESIAN_POINT('',(47.539207212,65.553143721,-4.));
#294=VERTEX_POINT('',#293);
#295=CARTESIAN_POINT('',(47.539207212,-59.460711035,-4.));
#296=DIRECTION('',(0.,1.,0.));
#297=VECTOR('',#296,125.013854756);
#298=LINE('',#295,#297);
#299=EDGE_CURVE('',#223,#294,#298,.T.);
#300=ORIENTED_EDGE('',*,*,#299,.T.);
#301=CARTESIAN_POINT('',(47.539207212,65.553143721,-4.));
#302=DIRECTION('',(-1.,0.,-0.));
#303=VECTOR('',#302,95.078414424);
#304=LINE('',#301,#303);
#305=EDGE_CURVE('',#294,#256,#304,.T.);
#306=ORIENTED_EDGE('',*,*,#305,.T.);
#307=ORIENTED_EDGE('',*,*,#261,.F.);
#308=CARTESIAN_POINT('',(-47.539207212,-59.460711035,-4.));
#309=DIRECTION('',(1.,0.,0.));
#310=VECTOR('',#309,32.539207212);
#311=LINE('',#308,#310);
#312=EDGE_CURVE('',#254,#193,#311,.T.);
#313=ORIENTED_EDGE('',*,*,#312,.T.);
#314=CARTESIAN_POINT('',(-15.,-59.460711035,-4.));
#315=DIRECTION('',(0.,1.,0.));
#316=VECTOR('',#315,0.540828469);
#317=LINE('',#314,#316);
#318=EDGE_CURVE('',#193,#123,#317,.T.);
#319=ORIENTED_EDGE('',*,*,#318,.T.);
#320=ORIENTED_EDGE('',*,*,#128,.T.);
#321=CARTESIAN_POINT('',(-17.,-40.960711035,-4.));
#322=VERTEX_POINT('',#321);
#323=CARTESIAN_POINT('',(-17.,-42.960711035,-4.));
#324=DIRECTION('',(0.,0.,-1.));
#325=DIRECTION('',(-1.,0.,-0.));
#326=AXIS2_PLACEMENT_3D('',#323,#324,#325);
#327=CIRCLE('',#326,2.);
#328=EDGE_CURVE('',#322,#115,#327,.T.);
#329=ORIENTED_EDGE('',*,*,#328,.F.);
#330=CARTESIAN_POINT('',(-23.,-40.960711035,-4.));
#331=VERTEX_POINT('',#330);
#332=CARTESIAN_POINT('',(-17.,-40.960711035,-4.));
#333=DIRECTION('',(-1.,0.,-0.));
#334=VECTOR('',#333,6.);
#335=LINE('',#332,#334);
#336=EDGE_CURVE('',#322,#331,#335,.T.);
#337=ORIENTED_EDGE('',*,*,#336,.T.);
#338=CARTESIAN_POINT('',(-25.,-38.960711035,-4.));
#339=VERTEX_POINT('',#338);
#340=CARTESIAN_POINT('',(-23.,-38.960711035,-4.));
#341=DIRECTION('',(-0.,-0.,1.));
#342=DIRECTION('',(-1.,0.,-0.));
#343=AXIS2_PLACEMENT_3D('',#340,#341,#342);
#344=CIRCLE('',#343,2.);
#345=EDGE_CURVE('',#339,#331,#344,.T.);
#346=ORIENTED_EDGE('',*,*,#345,.F.);
#347=CARTESIAN_POINT('',(-25.,-12.888866317,-4.));
#348=VERTEX_POINT('',#347);
#349=CARTESIAN_POINT('',(-25.,-38.960711035,-4.));
#350=DIRECTION('',(0.,1.,0.));
#351=VECTOR('',#350,26.071844718);
#352=LINE('',#349,#351);
#353=EDGE_CURVE('',#339,#348,#352,.T.);
#354=ORIENTED_EDGE('',*,*,#353,.T.);
#355=CARTESIAN_POINT('',(-23.,-10.888866317,-4.));
#356=VERTEX_POINT('',#355);
#357=CARTESIAN_POINT('',(-23.,-12.888866317,-4.));
#358=DIRECTION('',(-0.,-0.,1.));
#359=DIRECTION('',(-1.,0.,-0.));
#360=AXIS2_PLACEMENT_3D('',#357,#358,#359);
#361=CIRCLE('',#360,2.);
#362=EDGE_CURVE('',#356,#348,#361,.T.);
#363=ORIENTED_EDGE('',*,*,#362,.F.);
#364=CARTESIAN_POINT('',(23.,-10.888866317,-4.));
#365=VERTEX_POINT('',#364);
#366=CARTESIAN_POINT('',(23.,-10.888866317,-4.));
#367=DIRECTION('',(-1.,0.,-0.));
#368=VECTOR('',#367,46.);
#369=LINE('',#366,#368);
#370=EDGE_CURVE('',#365,#356,#369,.T.);
#371=ORIENTED_EDGE('',*,*,#370,.F.);
#372=CARTESIAN_POINT('',(25.,-12.888866317,-4.));
#373=VERTEX_POINT('',#372);
#374=CARTESIAN_POINT('',(23.,-12.888866317,-4.));
#375=DIRECTION('',(0.,-0.,-1.));
#376=DIRECTION('',(1.,0.,0.));
#377=AXIS2_PLACEMENT_3D('',#374,#375,#376);
#378=CIRCLE('',#377,2.);
#379=EDGE_CURVE('',#365,#373,#378,.T.);
#380=ORIENTED_EDGE('',*,*,#379,.T.);
#381=CARTESIAN_POINT('',(25.,-38.960711035,-4.));
#382=VERTEX_POINT('',#381);
#383=CARTESIAN_POINT('',(25.,-38.960711035,-4.));
#384=DIRECTION('',(0.,1.,0.));
#385=VECTOR('',#384,26.071844718);
#386=LINE('',#383,#385);
#387=EDGE_CURVE('',#382,#373,#386,.T.);
#388=ORIENTED_EDGE('',*,*,#387,.F.);
#389=CARTESIAN_POINT('',(23.,-40.960711035,-4.));
#390=VERTEX_POINT('',#389);
#391=CARTESIAN_POINT('',(23.,-38.960711035,-4.));
#392=DIRECTION('',(0.,-0.,-1.));
#393=DIRECTION('',(1.,0.,0.));
#394=AXIS2_PLACEMENT_3D('',#391,#392,#393);
#395=CIRCLE('',#394,2.);
#396=EDGE_CURVE('',#382,#390,#395,.T.);
#397=ORIENTED_EDGE('',*,*,#396,.T.);
#398=CARTESIAN_POINT('',(17.,-40.960711035,-4.));
#399=VERTEX_POINT('',#398);
#400=CARTESIAN_POINT('',(17.,-40.960711035,-4.));
#401=DIRECTION('',(1.,0.,0.));
#402=VECTOR('',#401,6.);
#403=LINE('',#400,#402);
#404=EDGE_CURVE('',#399,#390,#403,.T.);
#405=ORIENTED_EDGE('',*,*,#404,.F.);
#406=CARTESIAN_POINT('',(15.,-42.960711035,-4.));
#407=VERTEX_POINT('',#406);
#408=CARTESIAN_POINT('',(17.,-42.960711035,-4.));
#409=DIRECTION('',(-0.,0.,1.));
#410=DIRECTION('',(1.,0.,0.));
#411=AXIS2_PLACEMENT_3D('',#408,#409,#410);
#412=CIRCLE('',#411,2.);
#413=EDGE_CURVE('',#399,#407,#412,.T.);
#414=ORIENTED_EDGE('',*,*,#413,.T.);
#415=CARTESIAN_POINT('',(15.,-58.919882566,-4.));
#416=DIRECTION('',(0.,1.,0.));
#417=VECTOR('',#416,15.959171531);
#418=LINE('',#415,#417);
#419=EDGE_CURVE('',#147,#407,#418,.T.);
#420=ORIENTED_EDGE('',*,*,#419,.F.);
#421=ORIENTED_EDGE('',*,*,#172,.F.);
#422=ORIENTED_EDGE('',*,*,#228,.T.);
#423=EDGE_LOOP('',(#300,#306,#307,#313,#319,#320,#329,#337,#346,#354,#363,#371,#380,#388,#397,#405,#414,#420,#421,#422));
#424=FACE_BOUND('',#423,.T.);
#425=ADVANCED_FACE('',(#424),#292,.T.);
#426=CARTESIAN_POINT('',(47.539207212,-26.692369,-284.926323385));
#427=DIRECTION('',(1.,0.,0.));
#428=DIRECTION('',(0.,0.,-1.));
#429=AXIS2_PLACEMENT_3D('',#426,#427,#428);
#430=PLANE('',#429);
#431=CARTESIAN_POINT('',(47.539207212,65.553143721,-1.5));
#432=VERTEX_POINT('',#431);
#433=CARTESIAN_POINT('',(47.539207212,-59.460711035,-1.5));
#434=DIRECTION('',(0.,1.,0.));
#435=VECTOR('',#434,125.013854756);
#436=LINE('',#433,#435);
#437=EDGE_CURVE('',#232,#432,#436,.T.);
#438=ORIENTED_EDGE('',*,*,#437,.T.);
#439=CARTESIAN_POINT('',(47.539207212,65.553143721,-4.));
#440=DIRECTION('',(0.,0.,1.));
#441=VECTOR('',#440,2.5);
#442=LINE('',#439,#441);
#443=EDGE_CURVE('',#294,#432,#442,.T.);
#444=ORIENTED_EDGE('',*,*,#443,.F.);
#445=ORIENTED_EDGE('',*,*,#299,.F.);
#446=ORIENTED_EDGE('',*,*,#243,.T.);
#447=EDGE_LOOP('',(#438,#444,#445,#446));
#448=FACE_BOUND('',#447,.T.);
#449=ADVANCED_FACE('',(#448),#430,.F.);
#450=CARTESIAN_POINT('',(50.0392057,68.303143721,-6.));
#451=DIRECTION('',(0.,0.,1.));
#452=DIRECTION('',(1.,0.,0.));
#453=AXIS2_PLACEMENT_3D('',#450,#451,#452);
#454=PLANE('',#453);
#455=CARTESIAN_POINT('',(48.909258105,66.66833872,-6.));
#456=VERTEX_POINT('',#455);
#457=CARTESIAN_POINT('',(48.909258105,-60.483442868,-6.));
#458=VERTEX_POINT('',#457);
#459=CARTESIAN_POINT('',(48.909258105,66.66833872,-6.));
#460=DIRECTION('',(-0.,-1.,-0.));
#461=VECTOR('',#460,127.151781588);
#462=LINE('',#459,#461);
#463=EDGE_CURVE('',#456,#458,#462,.T.);
#464=ORIENTED_EDGE('',*,*,#463,.T.);
#465=CARTESIAN_POINT('',(15.,-60.483442868,-6.));
#466=VERTEX_POINT('',#465);
#467=CARTESIAN_POINT('',(48.909258105,-60.483442868,-6.));
#468=DIRECTION('',(-1.,0.,0.));
#469=VECTOR('',#468,33.909258105);
#470=LINE('',#467,#469);
#471=EDGE_CURVE('',#458,#466,#470,.T.);
#472=ORIENTED_EDGE('',*,*,#471,.T.);
#473=CARTESIAN_POINT('',(15.,-58.919882566,-6.));
#474=VERTEX_POINT('',#473);
#475=CARTESIAN_POINT('',(15.,-60.483442868,-6.));
#476=DIRECTION('',(0.,1.,0.));
#477=VECTOR('',#476,1.563560302);
#478=LINE('',#475,#477);
#479=EDGE_CURVE('',#466,#474,#478,.T.);
#480=ORIENTED_EDGE('',*,*,#479,.T.);
#481=CARTESIAN_POINT('',(-15.,-58.919882566,-6.));
#482=VERTEX_POINT('',#481);
#483=CARTESIAN_POINT('',(15.,-58.919882566,-6.));
#484=DIRECTION('',(-1.,0.,0.));
#485=VECTOR('',#484,30.);
#486=LINE('',#483,#485);
#487=EDGE_CURVE('',#474,#482,#486,.T.);
#488=ORIENTED_EDGE('',*,*,#487,.T.);
#489=CARTESIAN_POINT('',(-15.,-60.483442868,-6.));
#490=VERTEX_POINT('',#489);
#491=CARTESIAN_POINT('',(-15.,-58.919882566,-6.));
#492=DIRECTION('',(0.,-1.,0.));
#493=VECTOR('',#492,1.563560302);
#494=LINE('',#491,#493);
#495=EDGE_CURVE('',#482,#490,#494,.T.);
#496=ORIENTED_EDGE('',*,*,#495,.T.);
#497=CARTESIAN_POINT('',(-48.909258105,-60.483442868,-6.));
#498=VERTEX_POINT('',#497);
#499=CARTESIAN_POINT('',(-15.,-60.483442868,-6.));
#500=DIRECTION('',(-1.,0.,0.));
#501=VECTOR('',#500,33.909258105);
#502=LINE('',#499,#501);
#503=EDGE_CURVE('',#490,#498,#502,.T.);
#504=ORIENTED_EDGE('',*,*,#503,.T.);
#505=CARTESIAN_POINT('',(-48.909258105,66.66833872,-6.));
#506=VERTEX_POINT('',#505);
#507=CARTESIAN_POINT('',(-48.909258105,-60.483442868,-6.));
#508=DIRECTION('',(0.,1.,0.));
#509=VECTOR('',#508,127.151781588);
#510=LINE('',#507,#509);
#511=EDGE_CURVE('',#498,#506,#510,.T.);
#512=ORIENTED_EDGE('',*,*,#511,.T.);
#513=CARTESIAN_POINT('',(-48.654400699,66.923196126,-6.));
#514=VERTEX_POINT('',#513);
#515=CARTESIAN_POINT('',(-48.654400699,66.66833872,-6.));
#516=DIRECTION('',(-0.,-0.,-1.));
#517=DIRECTION('',(1.,0.,-0.));
#518=AXIS2_PLACEMENT_3D('',#515,#516,#517);
#519=CIRCLE('',#518,0.254857407);
#520=EDGE_CURVE('',#506,#514,#519,.T.);
#521=ORIENTED_EDGE('',*,*,#520,.T.);
#522=CARTESIAN_POINT('',(48.654400699,66.923196126,-6.));
#523=VERTEX_POINT('',#522);
#524=CARTESIAN_POINT('',(-48.654400699,66.923196126,-6.));
#525=DIRECTION('',(1.,-0.,-0.));
#526=VECTOR('',#525,97.308801397);
#527=LINE('',#524,#526);
#528=EDGE_CURVE('',#514,#523,#527,.T.);
#529=ORIENTED_EDGE('',*,*,#528,.T.);
#530=CARTESIAN_POINT('',(48.654400699,66.66833872,-6.));
#531=DIRECTION('',(-0.,-0.,-1.));
#532=DIRECTION('',(1.,0.,-0.));
#533=AXIS2_PLACEMENT_3D('',#530,#531,#532);
#534=CIRCLE('',#533,0.254857407);
#535=EDGE_CURVE('',#523,#456,#534,.T.);
#536=ORIENTED_EDGE('',*,*,#535,.T.);
#537=EDGE_LOOP('',(#464,#472,#480,#488,#496,#504,#512,#521,#529,#536));
#538=FACE_BOUND('',#537,.T.);
#539=ADVANCED_FACE('',(#538),#454,.F.);
#540=CARTESIAN_POINT('',(47.5,54.618186424,-4.4));
#541=DIRECTION('',(0.,0.,1.));
#542=DIRECTION('',(1.,0.,0.));
#543=AXIS2_PLACEMENT_3D('',#540,#541,#542);
#544=PLANE('',#543);
#545=CARTESIAN_POINT('',(15.,-42.960711035,-4.4));
#546=VERTEX_POINT('',#545);
#547=CARTESIAN_POINT('',(15.,-58.919882566,-4.4));
#548=DIRECTION('',(0.,1.,0.));
#549=VECTOR('',#548,15.959171531);
#550=LINE('',#547,#549);
#551=EDGE_CURVE('',#145,#546,#550,.T.);
#552=ORIENTED_EDGE('',*,*,#551,.T.);
#553=CARTESIAN_POINT('',(17.,-40.960711035,-4.4));
#554=VERTEX_POINT('',#553);
#555=CARTESIAN_POINT('',(17.,-42.960711035,-4.4));
#556=DIRECTION('',(-0.,-0.,-1.));
#557=DIRECTION('',(1.,0.,-0.));
#558=AXIS2_PLACEMENT_3D('',#555,#556,#557);
#559=CIRCLE('',#558,2.);
#560=EDGE_CURVE('',#546,#554,#559,.T.);
#561=ORIENTED_EDGE('',*,*,#560,.T.);
#562=CARTESIAN_POINT('',(23.,-40.960711035,-4.4));
#563=VERTEX_POINT('',#562);
#564=CARTESIAN_POINT('',(17.,-40.960711035,-4.4));
#565=DIRECTION('',(1.,0.,-0.));
#566=VECTOR('',#565,6.);
#567=LINE('',#564,#566);
#568=EDGE_CURVE('',#554,#563,#567,.T.);
#569=ORIENTED_EDGE('',*,*,#568,.T.);
#570=CARTESIAN_POINT('',(25.,-38.960711035,-4.4));
#571=VERTEX_POINT('',#570);
#572=CARTESIAN_POINT('',(23.,-38.960711035,-4.4));
#573=DIRECTION('',(0.,0.,1.));
#574=DIRECTION('',(1.,0.,-0.));
#575=AXIS2_PLACEMENT_3D('',#572,#573,#574);
#576=CIRCLE('',#575,2.);
#577=EDGE_CURVE('',#563,#571,#576,.T.);
#578=ORIENTED_EDGE('',*,*,#577,.T.);
#579=CARTESIAN_POINT('',(25.,-12.888866317,-4.4));
#580=VERTEX_POINT('',#579);
#581=CARTESIAN_POINT('',(25.,-38.960711035,-4.4));
#582=DIRECTION('',(0.,1.,0.));
#583=VECTOR('',#582,26.071844718);
#584=LINE('',#581,#583);
#585=EDGE_CURVE('',#571,#580,#584,.T.);
#586=ORIENTED_EDGE('',*,*,#585,.T.);
#587=CARTESIAN_POINT('',(23.,-10.888866317,-4.4));
#588=VERTEX_POINT('',#587);
#589=CARTESIAN_POINT('',(23.,-12.888866317,-4.4));
#590=DIRECTION('',(0.,0.,1.));
#591=DIRECTION('',(1.,0.,-0.));
#592=AXIS2_PLACEMENT_3D('',#589,#590,#591);
#593=CIRCLE('',#592,2.);
#594=EDGE_CURVE('',#580,#588,#593,.T.);
#595=ORIENTED_EDGE('',*,*,#594,.T.);
#596=CARTESIAN_POINT('',(-23.,-10.888866317,-4.4));
#597=VERTEX_POINT('',#596);
#598=CARTESIAN_POINT('',(23.,-10.888866317,-4.4));
#599=DIRECTION('',(-1.,0.,0.));
#600=VECTOR('',#599,46.);
#601=LINE('',#598,#600);
#602=EDGE_CURVE('',#588,#597,#601,.T.);
#603=ORIENTED_EDGE('',*,*,#602,.T.);
#604=CARTESIAN_POINT('',(-25.,-12.888866317,-4.4));
#605=VERTEX_POINT('',#604);
#606=CARTESIAN_POINT('',(-23.,-12.888866317,-4.4));
#607=DIRECTION('',(0.,0.,-1.));
#608=DIRECTION('',(-1.,0.,-0.));
#609=AXIS2_PLACEMENT_3D('',#606,#607,#608);
#610=CIRCLE('',#609,2.);
#611=EDGE_CURVE('',#605,#597,#610,.T.);
#612=ORIENTED_EDGE('',*,*,#611,.F.);
#613=CARTESIAN_POINT('',(-25.,-38.960711035,-4.4));
#614=VERTEX_POINT('',#613);
#615=CARTESIAN_POINT('',(-25.,-38.960711035,-4.4));
#616=DIRECTION('',(0.,1.,0.));
#617=VECTOR('',#616,26.071844718);
#618=LINE('',#615,#617);
#619=EDGE_CURVE('',#614,#605,#618,.T.);
#620=ORIENTED_EDGE('',*,*,#619,.F.);
#621=CARTESIAN_POINT('',(-23.,-40.960711035,-4.4));
#622=VERTEX_POINT('',#621);
#623=CARTESIAN_POINT('',(-23.,-38.960711035,-4.4));
#624=DIRECTION('',(0.,0.,-1.));
#625=DIRECTION('',(-1.,0.,-0.));
#626=AXIS2_PLACEMENT_3D('',#623,#624,#625);
#627=CIRCLE('',#626,2.);
#628=EDGE_CURVE('',#622,#614,#627,.T.);
#629=ORIENTED_EDGE('',*,*,#628,.F.);
#630=CARTESIAN_POINT('',(-17.,-40.960711035,-4.4));
#631=VERTEX_POINT('',#630);
#632=CARTESIAN_POINT('',(-17.,-40.960711035,-4.4));
#633=DIRECTION('',(-1.,0.,-0.));
#634=VECTOR('',#633,6.);
#635=LINE('',#632,#634);
#636=EDGE_CURVE('',#631,#622,#635,.T.);
#637=ORIENTED_EDGE('',*,*,#636,.F.);
#638=CARTESIAN_POINT('',(-17.,-42.960711035,-4.4));
#639=DIRECTION('',(-0.,-0.,1.));
#640=DIRECTION('',(-1.,0.,-0.));
#641=AXIS2_PLACEMENT_3D('',#638,#639,#640);
#642=CIRCLE('',#641,2.);
#643=EDGE_CURVE('',#107,#631,#642,.T.);
#644=ORIENTED_EDGE('',*,*,#643,.F.);
#645=ORIENTED_EDGE('',*,*,#112,.F.);
#646=CARTESIAN_POINT('',(15.,-58.919882566,-4.4));
#647=DIRECTION('',(-1.,0.,0.));
#648=VECTOR('',#647,30.);
#649=LINE('',#646,#648);
#650=EDGE_CURVE('',#145,#105,#649,.T.);
#651=ORIENTED_EDGE('',*,*,#650,.F.);
#652=EDGE_LOOP('',(#552,#561,#569,#578,#586,#595,#603,#612,#620,#629,#637,#644,#645,#651));
#653=FACE_BOUND('',#652,.T.);
#654=ADVANCED_FACE('',(#653),#544,.T.);
#655=CARTESIAN_POINT('',(0.,-61.960711035,-6.326536693));
#656=DIRECTION('',(0.,-1.,0.));
#657=DIRECTION('',(-0.,0.,1.));
#658=AXIS2_PLACEMENT_3D('',#655,#656,#657);
#659=PLANE('',#658);
#660=CARTESIAN_POINT('',(15.,-61.960711035,-4.522731833));
#661=VERTEX_POINT('',#660);
#662=CARTESIAN_POINT('',(15.,-61.960711035,-4.4));
#663=DIRECTION('',(0.,0.,-1.));
#664=VECTOR('',#663,0.122731833);
#665=LINE('',#662,#664);
#666=EDGE_CURVE('',#67,#661,#665,.T.);
#667=ORIENTED_EDGE('',*,*,#666,.T.);
#668=CARTESIAN_POINT('',(48.654400699,-61.960711035,-4.522731833));
#669=VERTEX_POINT('',#668);
#670=CARTESIAN_POINT('',(15.,-61.960711035,-4.522731833));
#671=DIRECTION('',(1.,-0.,-0.));
#672=VECTOR('',#671,33.654400699);
#673=LINE('',#670,#672);
#674=EDGE_CURVE('',#661,#669,#673,.T.);
#675=ORIENTED_EDGE('',*,*,#674,.T.);
#676=CARTESIAN_POINT('',(48.654400699,-61.960711035,-1.5));
#677=VERTEX_POINT('',#676);
#678=CARTESIAN_POINT('',(48.654400699,-61.960711035,-4.522731833));
#679=DIRECTION('',(-0.,0.,1.));
#680=VECTOR('',#679,3.022731833);
#681=LINE('',#678,#680);
#682=EDGE_CURVE('',#669,#677,#681,.T.);
#683=ORIENTED_EDGE('',*,*,#682,.T.);
#684=CARTESIAN_POINT('',(-48.654400699,-61.960711035,-1.5));
#685=VERTEX_POINT('',#684);
#686=CARTESIAN_POINT('',(48.654400699,-61.960711035,-1.5));
#687=DIRECTION('',(-1.,0.,-0.));
#688=VECTOR('',#687,97.308801397);
#689=LINE('',#686,#688);
#690=EDGE_CURVE('',#677,#685,#689,.T.);
#691=ORIENTED_EDGE('',*,*,#690,.T.);
#692=CARTESIAN_POINT('',(-48.654400699,-61.960711035,-4.522731833));
#693=VERTEX_POINT('',#692);
#694=CARTESIAN_POINT('',(-48.654400699,-61.960711035,-1.5));
#695=DIRECTION('',(0.,-0.,-1.));
#696=VECTOR('',#695,3.022731833);
#697=LINE('',#694,#696);
#698=EDGE_CURVE('',#685,#693,#697,.T.);
#699=ORIENTED_EDGE('',*,*,#698,.T.);
#700=CARTESIAN_POINT('',(-15.,-61.960711035,-4.522731833));
#701=VERTEX_POINT('',#700);
#702=CARTESIAN_POINT('',(-48.654400699,-61.960711035,-4.522731833));
#703=DIRECTION('',(1.,-0.,-0.));
#704=VECTOR('',#703,33.654400699);
#705=LINE('',#702,#704);
#706=EDGE_CURVE('',#693,#701,#705,.T.);
#707=ORIENTED_EDGE('',*,*,#706,.T.);
#708=CARTESIAN_POINT('',(-15.,-61.960711035,-4.4));
#709=DIRECTION('',(0.,0.,-1.));
#710=VECTOR('',#709,0.122731833);
#711=LINE('',#708,#710);
#712=EDGE_CURVE('',#65,#701,#711,.T.);
#713=ORIENTED_EDGE('',*,*,#712,.F.);
#714=ORIENTED_EDGE('',*,*,#72,.T.);
#715=EDGE_LOOP('',(#667,#675,#683,#691,#699,#707,#713,#714));
#716=FACE_BOUND('',#715,.T.);
#717=ADVANCED_FACE('',(#716),#659,.T.);
#718=CARTESIAN_POINT('',(-15.,-69.578310893,-4.4));
#719=DIRECTION('',(-1.,0.,-0.));
#720=DIRECTION('',(0.,0.,-1.));
#721=AXIS2_PLACEMENT_3D('',#718,#719,#720);
#722=PLANE('',#721);
#723=CARTESIAN_POINT('',(-15.,-59.460711035,-4.4));
#724=DIRECTION('',(0.,1.,0.));
#725=VECTOR('',#724,0.540828469);
#726=LINE('',#723,#725);
#727=EDGE_CURVE('',#75,#105,#726,.T.);
#728=ORIENTED_EDGE('',*,*,#727,.T.);
#729=ORIENTED_EDGE('',*,*,#134,.T.);
#730=ORIENTED_EDGE('',*,*,#318,.F.);
#731=ORIENTED_EDGE('',*,*,#198,.F.);
#732=EDGE_LOOP('',(#728,#729,#730,#731));
#733=FACE_BOUND('',#732,.T.);
#734=ADVANCED_FACE('',(#733),#722,.F.);
#735=CARTESIAN_POINT('',(-50.0392057,-45.458953821,24.850221613));
#736=DIRECTION('',(1.,0.,0.));
#737=DIRECTION('',(-0.,0.,1.));
#738=AXIS2_PLACEMENT_3D('',#735,#736,#737);
#739=PLANE('',#738);
#740=CARTESIAN_POINT('',(-50.0392057,66.66833872,-4.870052405));
#741=VERTEX_POINT('',#740);
#742=CARTESIAN_POINT('',(-50.0392057,-60.483442868,-4.870052405));
#743=VERTEX_POINT('',#742);
#744=CARTESIAN_POINT('',(-50.0392057,66.66833872,-4.870052405));
#745=DIRECTION('',(-0.,-1.,-0.));
#746=VECTOR('',#745,127.151781588);
#747=LINE('',#744,#746);
#748=EDGE_CURVE('',#741,#743,#747,.T.);
#749=ORIENTED_EDGE('',*,*,#748,.T.);
#750=CARTESIAN_POINT('',(-50.0392057,-60.575906033,-4.857518546));
#751=VERTEX_POINT('',#750);
#752=CARTESIAN_POINT('',(-50.0392057,-60.483442868,-4.522731833));
#753=DIRECTION('',(-1.,-0.,-0.));
#754=DIRECTION('',(0.,0.,-1.));
#755=AXIS2_PLACEMENT_3D('',#752,#753,#754);
#756=CIRCLE('',#755,0.347320572);
#757=EDGE_CURVE('',#743,#751,#756,.T.);
#758=ORIENTED_EDGE('',*,*,#757,.T.);
#759=CARTESIAN_POINT('',(-50.0392057,-60.575906033,-1.5));
#760=VERTEX_POINT('',#759);
#761=CARTESIAN_POINT('',(-50.0392057,-60.575906033,-4.857518546));
#762=DIRECTION('',(-0.,0.,1.));
#763=VECTOR('',#762,3.357518546);
#764=LINE('',#761,#763);
#765=EDGE_CURVE('',#751,#760,#764,.T.);
#766=ORIENTED_EDGE('',*,*,#765,.T.);
#767=CARTESIAN_POINT('',(-50.0392057,66.66833872,-1.5));
#768=VERTEX_POINT('',#767);
#769=CARTESIAN_POINT('',(-50.0392057,-60.575906033,-1.5));
#770=DIRECTION('',(0.,1.,0.));
#771=VECTOR('',#770,127.244244753);
#772=LINE('',#769,#771);
#773=EDGE_CURVE('',#760,#768,#772,.T.);
#774=ORIENTED_EDGE('',*,*,#773,.T.);
#775=CARTESIAN_POINT('',(-50.0392057,66.66833872,-1.5));
#776=DIRECTION('',(0.,0.,-1.));
#777=VECTOR('',#776,3.370052405);
#778=LINE('',#775,#777);
#779=EDGE_CURVE('',#768,#741,#778,.T.);
#780=ORIENTED_EDGE('',*,*,#779,.T.);
#781=EDGE_LOOP('',(#749,#758,#766,#774,#780));
#782=FACE_BOUND('',#781,.T.);
#783=ADVANCED_FACE('',(#782),#739,.F.);
#784=CARTESIAN_POINT('',(0.,3.046216343,-1.5));
#785=DIRECTION('',(-0.,0.,1.));
#786=DIRECTION('',(-1.,0.,-0.));
#787=AXIS2_PLACEMENT_3D('',#784,#785,#786);
#788=PLANE('',#787);
#789=CARTESIAN_POINT('',(50.0392057,-60.575906033,-1.5));
#790=VERTEX_POINT('',#789);
#791=CARTESIAN_POINT('',(50.0392057,66.66833872,-1.5));
#792=VERTEX_POINT('',#791);
#793=CARTESIAN_POINT('',(50.0392057,-60.575906033,-1.5));
#794=DIRECTION('',(0.,1.,0.));
#795=VECTOR('',#794,127.244244753);
#796=LINE('',#793,#795);
#797=EDGE_CURVE('',#790,#792,#796,.T.);
#798=ORIENTED_EDGE('',*,*,#797,.T.);
#799=CARTESIAN_POINT('',(48.654400699,68.053143721,-1.5));
#800=VERTEX_POINT('',#799);
#801=CARTESIAN_POINT('',(48.654400699,66.66833872,-1.5));
#802=DIRECTION('',(-0.,0.,1.));
#803=DIRECTION('',(1.,0.,0.));
#804=AXIS2_PLACEMENT_3D('',#801,#802,#803);
#805=CIRCLE('',#804,1.384805002);
#806=EDGE_CURVE('',#792,#800,#805,.T.);
#807=ORIENTED_EDGE('',*,*,#806,.T.);
#808=CARTESIAN_POINT('',(-48.654400699,68.053143721,-1.5));
#809=VERTEX_POINT('',#808);
#810=CARTESIAN_POINT('',(-48.654400699,68.053143721,-1.5));
#811=DIRECTION('',(1.,0.,0.));
#812=VECTOR('',#811,97.308801397);
#813=LINE('',#810,#812);
#814=EDGE_CURVE('',#809,#800,#813,.T.);
#815=ORIENTED_EDGE('',*,*,#814,.F.);
#816=CARTESIAN_POINT('',(-48.654400699,66.66833872,-1.5));
#817=DIRECTION('',(-0.,0.,1.));
#818=DIRECTION('',(1.,0.,0.));
#819=AXIS2_PLACEMENT_3D('',#816,#817,#818);
#820=CIRCLE('',#819,1.384805002);
#821=EDGE_CURVE('',#809,#768,#820,.T.);
#822=ORIENTED_EDGE('',*,*,#821,.T.);
#823=ORIENTED_EDGE('',*,*,#773,.F.);
#824=CARTESIAN_POINT('',(-48.654400699,-60.575906033,-1.5));
#825=DIRECTION('',(-0.,0.,1.));
#826=DIRECTION('',(1.,0.,0.));
#827=AXIS2_PLACEMENT_3D('',#824,#825,#826);
#828=CIRCLE('',#827,1.384805002);
#829=EDGE_CURVE('',#760,#685,#828,.T.);
#830=ORIENTED_EDGE('',*,*,#829,.T.);
#831=ORIENTED_EDGE('',*,*,#690,.F.);
#832=CARTESIAN_POINT('',(48.654400699,-60.575906033,-1.5));
#833=DIRECTION('',(-0.,0.,1.));
#834=DIRECTION('',(1.,0.,0.));
#835=AXIS2_PLACEMENT_3D('',#832,#833,#834);
#836=CIRCLE('',#835,1.384805002);
#837=EDGE_CURVE('',#677,#790,#836,.T.);
#838=ORIENTED_EDGE('',*,*,#837,.T.);
#839=EDGE_LOOP('',(#798,#807,#815,#822,#823,#830,#831,#838));
#840=FACE_BOUND('',#839,.T.);
#841=ORIENTED_EDGE('',*,*,#277,.T.);
#842=CARTESIAN_POINT('',(47.539207212,65.553143721,-1.5));
#843=DIRECTION('',(-1.,0.,-0.));
#844=VECTOR('',#843,95.078414424);
#845=LINE('',#842,#844);
#846=EDGE_CURVE('',#432,#264,#845,.T.);
#847=ORIENTED_EDGE('',*,*,#846,.F.);
#848=ORIENTED_EDGE('',*,*,#437,.F.);
#849=ORIENTED_EDGE('',*,*,#237,.F.);
#850=ORIENTED_EDGE('',*,*,#212,.F.);
#851=CARTESIAN_POINT('',(-47.539207212,-59.460711035,-1.5));
#852=DIRECTION('',(1.,0.,0.));
#853=VECTOR('',#852,32.539207212);
#854=LINE('',#851,#853);
#855=EDGE_CURVE('',#272,#201,#854,.T.);
#856=ORIENTED_EDGE('',*,*,#855,.F.);
#857=EDGE_LOOP('',(#841,#847,#848,#849,#850,#856));
#858=FACE_BOUND('',#857,.T.);
#859=ADVANCED_FACE('',(#840,#858),#788,.T.);
#860=CARTESIAN_POINT('',(15.,-69.578310893,-4.4));
#861=DIRECTION('',(1.,0.,0.));
#862=DIRECTION('',(0.,0.,-1.));
#863=AXIS2_PLACEMENT_3D('',#860,#861,#862);
#864=PLANE('',#863);
#865=ORIENTED_EDGE('',*,*,#419,.T.);
#866=CARTESIAN_POINT('',(15.,-42.960711035,-4.));
#867=DIRECTION('',(0.,0.,-1.));
#868=VECTOR('',#867,0.4);
#869=LINE('',#866,#868);
#870=EDGE_CURVE('',#407,#546,#869,.T.);
#871=ORIENTED_EDGE('',*,*,#870,.T.);
#872=ORIENTED_EDGE('',*,*,#551,.F.);
#873=ORIENTED_EDGE('',*,*,#152,.T.);
#874=EDGE_LOOP('',(#865,#871,#872,#873));
#875=FACE_BOUND('',#874,.T.);
#876=ADVANCED_FACE('',(#875),#864,.F.);
#877=CARTESIAN_POINT('',(50.0392057,-45.458953821,24.850221613));
#878=DIRECTION('',(-1.,0.,-0.));
#879=DIRECTION('',(-0.,0.,1.));
#880=AXIS2_PLACEMENT_3D('',#877,#878,#879);
#881=PLANE('',#880);
#882=CARTESIAN_POINT('',(50.0392057,-60.575906033,-4.857518546));
#883=VERTEX_POINT('',#882);
#884=CARTESIAN_POINT('',(50.0392057,-60.575906033,-1.5));
#885=DIRECTION('',(0.,-0.,-1.));
#886=VECTOR('',#885,3.357518546);
#887=LINE('',#884,#886);
#888=EDGE_CURVE('',#790,#883,#887,.T.);
#889=ORIENTED_EDGE('',*,*,#888,.T.);
#890=CARTESIAN_POINT('',(50.0392057,-60.483442868,-4.870052405));
#891=VERTEX_POINT('',#890);
#892=CARTESIAN_POINT('',(50.0392057,-60.483442868,-4.522731833));
#893=DIRECTION('',(1.,-0.,0.));
#894=DIRECTION('',(-0.,0.,1.));
#895=AXIS2_PLACEMENT_3D('',#892,#893,#894);
#896=CIRCLE('',#895,0.347320572);
#897=EDGE_CURVE('',#883,#891,#896,.T.);
#898=ORIENTED_EDGE('',*,*,#897,.T.);
#899=CARTESIAN_POINT('',(50.0392057,66.66833872,-4.870052405));
#900=VERTEX_POINT('',#899);
#901=CARTESIAN_POINT('',(50.0392057,-60.483442868,-4.870052405));
#902=DIRECTION('',(0.,1.,0.));
#903=VECTOR('',#902,127.151781588);
#904=LINE('',#901,#903);
#905=EDGE_CURVE('',#891,#900,#904,.T.);
#906=ORIENTED_EDGE('',*,*,#905,.T.);
#907=CARTESIAN_POINT('',(50.0392057,66.66833872,-4.870052405));
#908=DIRECTION('',(-0.,0.,1.));
#909=VECTOR('',#908,3.370052405);
#910=LINE('',#907,#909);
#911=EDGE_CURVE('',#900,#792,#910,.T.);
#912=ORIENTED_EDGE('',*,*,#911,.T.);
#913=ORIENTED_EDGE('',*,*,#797,.F.);
#914=EDGE_LOOP('',(#889,#898,#906,#912,#913));
#915=FACE_BOUND('',#914,.T.);
#916=ADVANCED_FACE('',(#915),#881,.F.);
#917=CARTESIAN_POINT('',(0.,-59.460711035,-5.));
#918=DIRECTION('',(0.,-1.,0.));
#919=DIRECTION('',(0.,0.,-1.));
#920=AXIS2_PLACEMENT_3D('',#917,#918,#919);
#921=PLANE('',#920);
#922=ORIENTED_EDGE('',*,*,#855,.T.);
#923=ORIENTED_EDGE('',*,*,#206,.T.);
#924=ORIENTED_EDGE('',*,*,#312,.F.);
#925=ORIENTED_EDGE('',*,*,#283,.T.);
#926=EDGE_LOOP('',(#922,#923,#924,#925));
#927=FACE_BOUND('',#926,.T.);
#928=ADVANCED_FACE('',(#927),#921,.F.);
#929=CARTESIAN_POINT('',(48.654400699,-60.575906033,-6.326536693));
#930=DIRECTION('',(0.,0.,-1.));
#931=DIRECTION('',(-1.,0.,-0.));
#932=AXIS2_PLACEMENT_3D('',#929,#930,#931);
#933=CYLINDRICAL_SURFACE('',#932,1.384805002);
#934=ORIENTED_EDGE('',*,*,#682,.F.);
#935=CARTESIAN_POINT('',(50.0392057,-60.575906033,-4.857518546));
#936=CARTESIAN_POINT('',(50.0392057,-60.693034751,-4.851565043));
#937=CARTESIAN_POINT('',(50.024625478,-60.803693203,-4.843726216));
#938=CARTESIAN_POINT('',(49.99860561,-60.90876944,-4.834181477));
#939=CARTESIAN_POINT('',(49.972585742,-61.013845677,-4.824636737));
#940=CARTESIAN_POINT('',(49.934912066,-61.112519988,-4.813394773));
#941=CARTESIAN_POINT('',(49.889774136,-61.201635498,-4.801165113));
#942=CARTESIAN_POINT('',(49.844636206,-61.290751008,-4.788935453));
#943=CARTESIAN_POINT('',(49.791100886,-61.372234738,-4.775464623));
#944=CARTESIAN_POINT('',(49.733148827,-61.444230493,-4.761463208));
#945=CARTESIAN_POINT('',(49.675196769,-61.516226247,-4.747461792));
#946=CARTESIAN_POINT('',(49.61256592,-61.57946235,-4.732854018));
#947=CARTESIAN_POINT('',(49.546220444,-61.635312676,-4.71770057));
#948=CARTESIAN_POINT('',(49.479874968,-61.691163001,-4.702547122));
#949=CARTESIAN_POINT('',(49.409311825,-61.739790613,-4.686741612));
#950=CARTESIAN_POINT('',(49.33740218,-61.780561116,-4.670823766));
#951=CARTESIAN_POINT('',(49.265492534,-61.82133162,-4.654905919));
#952=CARTESIAN_POINT('',(49.191941094,-61.854595497,-4.638806125));
#953=CARTESIAN_POINT('',(49.117061003,-61.881137942,-4.622521011));
#954=CARTESIAN_POINT('',(48.967300821,-61.934222831,-4.589950784));
#955=CARTESIAN_POINT('',(48.811090451,-61.960711035,-4.556395437));
#956=CARTESIAN_POINT('',(48.654400699,-61.960711035,-4.522731833));
#957=B_SPLINE_CURVE_WITH_KNOTS('',3,(#935,#936,#937,#938,#939,#940,#941,#942,#943,#944,#945,#946,#947,#948,#949,#950,#951,#952,#953,#954,#955,#956),.UNSPECIFIED.,.F.,.F.,(4,3,3,3,3,3,3,4),(0.,0.000065929,0.000131859,0.000197788,0.000263718,0.000329647,0.000395576,0.000527435),.UNSPECIFIED.);
#958=EDGE_CURVE('',#883,#669,#957,.T.);
#959=ORIENTED_EDGE('',*,*,#958,.F.);
#960=ORIENTED_EDGE('',*,*,#888,.F.);
#961=ORIENTED_EDGE('',*,*,#837,.F.);
#962=EDGE_LOOP('',(#934,#959,#960,#961));
#963=FACE_BOUND('',#962,.T.);
#964=ADVANCED_FACE('',(#963),#933,.T.);
#965=CARTESIAN_POINT('',(-48.654400699,-60.575906033,24.850221613));
#966=DIRECTION('',(0.,0.,-1.));
#967=DIRECTION('',(-1.,0.,-0.));
#968=AXIS2_PLACEMENT_3D('',#965,#966,#967);
#969=CYLINDRICAL_SURFACE('',#968,1.384805002);
#970=ORIENTED_EDGE('',*,*,#829,.F.);
#971=ORIENTED_EDGE('',*,*,#765,.F.);
#972=CARTESIAN_POINT('',(-48.654400699,-61.960711035,-4.522731833));
#973=CARTESIAN_POINT('',(-48.811090451,-61.960711035,-4.556395437));
#974=CARTESIAN_POINT('',(-48.967300809,-61.934223051,-4.589950859));
#975=CARTESIAN_POINT('',(-49.117061003,-61.881137942,-4.622521011));
#976=CARTESIAN_POINT('',(-49.1919411,-61.854595387,-4.638806087));
#977=CARTESIAN_POINT('',(-49.265492504,-61.821331662,-4.654905964));
#978=CARTESIAN_POINT('',(-49.33740218,-61.780561116,-4.670823766));
#979=CARTESIAN_POINT('',(-49.409311856,-61.739790571,-4.686741567));
#980=CARTESIAN_POINT('',(-49.479874957,-61.691163049,-4.702547163));
#981=CARTESIAN_POINT('',(-49.546220444,-61.635312676,-4.71770057));
#982=CARTESIAN_POINT('',(-49.612565931,-61.579462302,-4.732853977));
#983=CARTESIAN_POINT('',(-49.675196715,-61.516226278,-4.747461863));
#984=CARTESIAN_POINT('',(-49.733148827,-61.444230493,-4.761463208));
#985=CARTESIAN_POINT('',(-49.79110094,-61.372234707,-4.775464553));
#986=CARTESIAN_POINT('',(-49.844636195,-61.290751013,-4.788935467));
#987=CARTESIAN_POINT('',(-49.889774136,-61.201635498,-4.801165113));
#988=CARTESIAN_POINT('',(-49.934912077,-61.112519982,-4.813394759));
#989=CARTESIAN_POINT('',(-49.972585745,-61.013845678,-4.824636737));
#990=CARTESIAN_POINT('',(-49.99860561,-60.90876944,-4.834181477));
#991=CARTESIAN_POINT('',(-50.024625476,-60.803693202,-4.843726216));
#992=CARTESIAN_POINT('',(-50.0392057,-60.693034751,-4.851565043));
#993=CARTESIAN_POINT('',(-50.0392057,-60.575906033,-4.857518546));
#994=B_SPLINE_CURVE_WITH_KNOTS('',3,(#972,#973,#974,#975,#976,#977,#978,#979,#980,#981,#982,#983,#984,#985,#986,#987,#988,#989,#990,#991,#992,#993),.UNSPECIFIED.,.F.,.F.,(4,3,3,3,3,3,3,4),(0.,0.000131859,0.000197788,0.000263718,0.000329647,0.000395576,0.000461506,0.000527435),.UNSPECIFIED.);
#995=EDGE_CURVE('',#693,#751,#994,.T.);
#996=ORIENTED_EDGE('',*,*,#995,.F.);
#997=ORIENTED_EDGE('',*,*,#698,.F.);
#998=EDGE_LOOP('',(#970,#971,#996,#997));
#999=FACE_BOUND('',#998,.T.);
#1000=ADVANCED_FACE('',(#999),#969,.T.);
#1001=CARTESIAN_POINT('',(15.,-58.919882566,-256.157386072));
#1002=DIRECTION('',(0.,1.,0.));
#1003=DIRECTION('',(0.,0.,1.));
#1004=AXIS2_PLACEMENT_3D('',#1001,#1002,#1003);
#1005=PLANE('',#1004);
#1006=CARTESIAN_POINT('',(15.,-58.919882566,-6.));
#1007=DIRECTION('',(0.,0.,1.));
#1008=VECTOR('',#1007,1.6);
#1009=LINE('',#1006,#1008);
#1010=EDGE_CURVE('',#474,#145,#1009,.T.);
#1011=ORIENTED_EDGE('',*,*,#1010,.T.);
#1012=ORIENTED_EDGE('',*,*,#650,.T.);
#1013=CARTESIAN_POINT('',(-15.,-58.919882566,-6.));
#1014=DIRECTION('',(0.,0.,1.));
#1015=VECTOR('',#1014,1.6);
#1016=LINE('',#1013,#1015);
#1017=EDGE_CURVE('',#482,#105,#1016,.T.);
#1018=ORIENTED_EDGE('',*,*,#1017,.F.);
#1019=ORIENTED_EDGE('',*,*,#487,.F.);
#1020=EDGE_LOOP('',(#1011,#1012,#1018,#1019));
#1021=FACE_BOUND('',#1020,.T.);
#1022=ADVANCED_FACE('',(#1021),#1005,.F.);
#1023=CARTESIAN_POINT('',(15.,-60.460711035,-256.157386072));
#1024=DIRECTION('',(1.,0.,0.));
#1025=DIRECTION('',(0.,0.,-1.));
#1026=AXIS2_PLACEMENT_3D('',#1023,#1024,#1025);
#1027=PLANE('',#1026);
#1028=ORIENTED_EDGE('',*,*,#479,.F.);
#1029=CARTESIAN_POINT('',(15.,-60.483442868,-4.522731833));
#1030=DIRECTION('',(-1.,-0.,-0.));
#1031=DIRECTION('',(0.,0.,-1.));
#1032=AXIS2_PLACEMENT_3D('',#1029,#1030,#1031);
#1033=CIRCLE('',#1032,1.477268167);
#1034=EDGE_CURVE('',#466,#661,#1033,.T.);
#1035=ORIENTED_EDGE('',*,*,#1034,.T.);
#1036=ORIENTED_EDGE('',*,*,#666,.F.);
#1037=ORIENTED_EDGE('',*,*,#94,.T.);
#1038=ORIENTED_EDGE('',*,*,#158,.T.);
#1039=ORIENTED_EDGE('',*,*,#1010,.F.);
#1040=EDGE_LOOP('',(#1028,#1035,#1036,#1037,#1038,#1039));
#1041=FACE_BOUND('',#1040,.T.);
#1042=ADVANCED_FACE('',(#1041),#1027,.F.);
#1043=CARTESIAN_POINT('',(-15.,-58.919882566,-256.157386072));
#1044=DIRECTION('',(-1.,0.,0.));
#1045=DIRECTION('',(0.,0.,1.));
#1046=AXIS2_PLACEMENT_3D('',#1043,#1044,#1045);
#1047=PLANE('',#1046);
#1048=ORIENTED_EDGE('',*,*,#712,.T.);
#1049=CARTESIAN_POINT('',(-15.,-60.483442868,-4.522731833));
#1050=DIRECTION('',(1.,-0.,-0.));
#1051=DIRECTION('',(0.,0.,1.));
#1052=AXIS2_PLACEMENT_3D('',#1049,#1050,#1051);
#1053=CIRCLE('',#1052,1.477268167);
#1054=EDGE_CURVE('',#701,#490,#1053,.T.);
#1055=ORIENTED_EDGE('',*,*,#1054,.T.);
#1056=ORIENTED_EDGE('',*,*,#495,.F.);
#1057=ORIENTED_EDGE('',*,*,#1017,.T.);
#1058=ORIENTED_EDGE('',*,*,#727,.F.);
#1059=ORIENTED_EDGE('',*,*,#80,.F.);
#1060=EDGE_LOOP('',(#1048,#1055,#1056,#1057,#1058,#1059));
#1061=FACE_BOUND('',#1060,.T.);
#1062=ADVANCED_FACE('',(#1061),#1047,.F.);
#1063=CARTESIAN_POINT('',(-17.,-42.960711035,-4.4));
#1064=DIRECTION('',(0.,0.,-1.));
#1065=DIRECTION('',(1.,0.,0.));
#1066=AXIS2_PLACEMENT_3D('',#1063,#1064,#1065);
#1067=CYLINDRICAL_SURFACE('',#1066,2.);
#1068=ORIENTED_EDGE('',*,*,#328,.T.);
#1069=ORIENTED_EDGE('',*,*,#120,.T.);
#1070=ORIENTED_EDGE('',*,*,#643,.T.);
#1071=CARTESIAN_POINT('',(-17.,-40.960711035,-4.4));
#1072=DIRECTION('',(-0.,-0.,1.));
#1073=VECTOR('',#1072,0.4);
#1074=LINE('',#1071,#1073);
#1075=EDGE_CURVE('',#631,#322,#1074,.T.);
#1076=ORIENTED_EDGE('',*,*,#1075,.T.);
#1077=EDGE_LOOP('',(#1068,#1069,#1070,#1076));
#1078=FACE_BOUND('',#1077,.T.);
#1079=ADVANCED_FACE('',(#1078),#1067,.T.);
#1080=CARTESIAN_POINT('',(0.,-40.960711035,-4.4));
#1081=DIRECTION('',(0.,-1.,0.));
#1082=DIRECTION('',(0.,0.,-1.));
#1083=AXIS2_PLACEMENT_3D('',#1080,#1081,#1082);
#1084=PLANE('',#1083);
#1085=ORIENTED_EDGE('',*,*,#336,.F.);
#1086=ORIENTED_EDGE('',*,*,#1075,.F.);
#1087=ORIENTED_EDGE('',*,*,#636,.T.);
#1088=CARTESIAN_POINT('',(-23.,-40.960711035,-4.));
#1089=DIRECTION('',(0.,-0.,-1.));
#1090=VECTOR('',#1089,0.4);
#1091=LINE('',#1088,#1090);
#1092=EDGE_CURVE('',#331,#622,#1091,.T.);
#1093=ORIENTED_EDGE('',*,*,#1092,.F.);
#1094=EDGE_LOOP('',(#1085,#1086,#1087,#1093));
#1095=FACE_BOUND('',#1094,.T.);
#1096=ADVANCED_FACE('',(#1095),#1084,.F.);
#1097=CARTESIAN_POINT('',(-23.,-38.960711035,-4.4));
#1098=DIRECTION('',(0.,0.,-1.));
#1099=DIRECTION('',(1.,0.,0.));
#1100=AXIS2_PLACEMENT_3D('',#1097,#1098,#1099);
#1101=CYLINDRICAL_SURFACE('',#1100,2.);
#1102=ORIENTED_EDGE('',*,*,#628,.T.);
#1103=CARTESIAN_POINT('',(-25.,-38.960711035,-4.4));
#1104=DIRECTION('',(-0.,0.,1.));
#1105=VECTOR('',#1104,0.4);
#1106=LINE('',#1103,#1105);
#1107=EDGE_CURVE('',#614,#339,#1106,.T.);
#1108=ORIENTED_EDGE('',*,*,#1107,.T.);
#1109=ORIENTED_EDGE('',*,*,#345,.T.);
#1110=ORIENTED_EDGE('',*,*,#1092,.T.);
#1111=EDGE_LOOP('',(#1102,#1108,#1109,#1110));
#1112=FACE_BOUND('',#1111,.T.);
#1113=ADVANCED_FACE('',(#1112),#1101,.F.);
#1114=CARTESIAN_POINT('',(-25.,-55.888866317,-4.4));
#1115=DIRECTION('',(-1.,0.,-0.));
#1116=DIRECTION('',(0.,0.,-1.));
#1117=AXIS2_PLACEMENT_3D('',#1114,#1115,#1116);
#1118=PLANE('',#1117);
#1119=ORIENTED_EDGE('',*,*,#353,.F.);
#1120=ORIENTED_EDGE('',*,*,#1107,.F.);
#1121=ORIENTED_EDGE('',*,*,#619,.T.);
#1122=CARTESIAN_POINT('',(-25.,-12.888866317,-4.));
#1123=DIRECTION('',(0.,-0.,-1.));
#1124=VECTOR('',#1123,0.4);
#1125=LINE('',#1122,#1124);
#1126=EDGE_CURVE('',#348,#605,#1125,.T.);
#1127=ORIENTED_EDGE('',*,*,#1126,.F.);
#1128=EDGE_LOOP('',(#1119,#1120,#1121,#1127));
#1129=FACE_BOUND('',#1128,.T.);
#1130=ADVANCED_FACE('',(#1129),#1118,.F.);
#1131=CARTESIAN_POINT('',(-23.,-12.888866317,-4.4));
#1132=DIRECTION('',(0.,0.,-1.));
#1133=DIRECTION('',(1.,0.,0.));
#1134=AXIS2_PLACEMENT_3D('',#1131,#1132,#1133);
#1135=CYLINDRICAL_SURFACE('',#1134,2.);
#1136=ORIENTED_EDGE('',*,*,#611,.T.);
#1137=CARTESIAN_POINT('',(-23.,-10.888866317,-4.4));
#1138=DIRECTION('',(-0.,0.,1.));
#1139=VECTOR('',#1138,0.4);
#1140=LINE('',#1137,#1139);
#1141=EDGE_CURVE('',#597,#356,#1140,.T.);
#1142=ORIENTED_EDGE('',*,*,#1141,.T.);
#1143=ORIENTED_EDGE('',*,*,#362,.T.);
#1144=ORIENTED_EDGE('',*,*,#1126,.T.);
#1145=EDGE_LOOP('',(#1136,#1142,#1143,#1144));
#1146=FACE_BOUND('',#1145,.T.);
#1147=ADVANCED_FACE('',(#1146),#1135,.F.);
#1148=CARTESIAN_POINT('',(0.,-10.888866317,-4.4));
#1149=DIRECTION('',(0.,1.,0.));
#1150=DIRECTION('',(-1.,0.,0.));
#1151=AXIS2_PLACEMENT_3D('',#1148,#1149,#1150);
#1152=PLANE('',#1151);
#1153=ORIENTED_EDGE('',*,*,#370,.T.);
#1154=ORIENTED_EDGE('',*,*,#1141,.F.);
#1155=ORIENTED_EDGE('',*,*,#602,.F.);
#1156=CARTESIAN_POINT('',(23.,-10.888866317,-4.4));
#1157=DIRECTION('',(0.,0.,1.));
#1158=VECTOR('',#1157,0.4);
#1159=LINE('',#1156,#1158);
#1160=EDGE_CURVE('',#588,#365,#1159,.T.);
#1161=ORIENTED_EDGE('',*,*,#1160,.T.);
#1162=EDGE_LOOP('',(#1153,#1154,#1155,#1161));
#1163=FACE_BOUND('',#1162,.T.);
#1164=ADVANCED_FACE('',(#1163),#1152,.F.);
#1165=CARTESIAN_POINT('',(23.,-12.888866317,-4.4));
#1166=DIRECTION('',(0.,0.,-1.));
#1167=DIRECTION('',(-1.,0.,0.));
#1168=AXIS2_PLACEMENT_3D('',#1165,#1166,#1167);
#1169=CYLINDRICAL_SURFACE('',#1168,2.);
#1170=ORIENTED_EDGE('',*,*,#594,.F.);
#1171=CARTESIAN_POINT('',(25.,-12.888866317,-4.));
#1172=DIRECTION('',(-0.,-0.,-1.));
#1173=VECTOR('',#1172,0.4);
#1174=LINE('',#1171,#1173);
#1175=EDGE_CURVE('',#373,#580,#1174,.T.);
#1176=ORIENTED_EDGE('',*,*,#1175,.F.);
#1177=ORIENTED_EDGE('',*,*,#379,.F.);
#1178=ORIENTED_EDGE('',*,*,#1160,.F.);
#1179=EDGE_LOOP('',(#1170,#1176,#1177,#1178));
#1180=FACE_BOUND('',#1179,.T.);
#1181=ADVANCED_FACE('',(#1180),#1169,.F.);
#1182=CARTESIAN_POINT('',(25.,-55.888866317,-4.4));
#1183=DIRECTION('',(1.,0.,0.));
#1184=DIRECTION('',(0.,0.,-1.));
#1185=AXIS2_PLACEMENT_3D('',#1182,#1183,#1184);
#1186=PLANE('',#1185);
#1187=ORIENTED_EDGE('',*,*,#387,.T.);
#1188=ORIENTED_EDGE('',*,*,#1175,.T.);
#1189=ORIENTED_EDGE('',*,*,#585,.F.);
#1190=CARTESIAN_POINT('',(25.,-38.960711035,-4.4));
#1191=DIRECTION('',(0.,0.,1.));
#1192=VECTOR('',#1191,0.4);
#1193=LINE('',#1190,#1192);
#1194=EDGE_CURVE('',#571,#382,#1193,.T.);
#1195=ORIENTED_EDGE('',*,*,#1194,.T.);
#1196=EDGE_LOOP('',(#1187,#1188,#1189,#1195));
#1197=FACE_BOUND('',#1196,.T.);
#1198=ADVANCED_FACE('',(#1197),#1186,.F.);
#1199=CARTESIAN_POINT('',(23.,-38.960711035,-4.4));
#1200=DIRECTION('',(0.,0.,-1.));
#1201=DIRECTION('',(-1.,0.,0.));
#1202=AXIS2_PLACEMENT_3D('',#1199,#1200,#1201);
#1203=CYLINDRICAL_SURFACE('',#1202,2.);
#1204=ORIENTED_EDGE('',*,*,#577,.F.);
#1205=CARTESIAN_POINT('',(23.,-40.960711035,-4.));
#1206=DIRECTION('',(-0.,-0.,-1.));
#1207=VECTOR('',#1206,0.4);
#1208=LINE('',#1205,#1207);
#1209=EDGE_CURVE('',#390,#563,#1208,.T.);
#1210=ORIENTED_EDGE('',*,*,#1209,.F.);
#1211=ORIENTED_EDGE('',*,*,#396,.F.);
#1212=ORIENTED_EDGE('',*,*,#1194,.F.);
#1213=EDGE_LOOP('',(#1204,#1210,#1211,#1212));
#1214=FACE_BOUND('',#1213,.T.);
#1215=ADVANCED_FACE('',(#1214),#1203,.F.);
#1216=CARTESIAN_POINT('',(0.,-40.960711035,-4.4));
#1217=DIRECTION('',(0.,-1.,0.));
#1218=DIRECTION('',(0.,0.,-1.));
#1219=AXIS2_PLACEMENT_3D('',#1216,#1217,#1218);
#1220=PLANE('',#1219);
#1221=ORIENTED_EDGE('',*,*,#404,.T.);
#1222=ORIENTED_EDGE('',*,*,#1209,.T.);
#1223=ORIENTED_EDGE('',*,*,#568,.F.);
#1224=CARTESIAN_POINT('',(17.,-40.960711035,-4.4));
#1225=DIRECTION('',(-0.,-0.,1.));
#1226=VECTOR('',#1225,0.4);
#1227=LINE('',#1224,#1226);
#1228=EDGE_CURVE('',#554,#399,#1227,.T.);
#1229=ORIENTED_EDGE('',*,*,#1228,.T.);
#1230=EDGE_LOOP('',(#1221,#1222,#1223,#1229));
#1231=FACE_BOUND('',#1230,.T.);
#1232=ADVANCED_FACE('',(#1231),#1220,.F.);
#1233=CARTESIAN_POINT('',(-48.654400699,66.66833872,24.850221613));
#1234=DIRECTION('',(0.,0.,-1.));
#1235=DIRECTION('',(-1.,0.,-0.));
#1236=AXIS2_PLACEMENT_3D('',#1233,#1234,#1235);
#1237=CYLINDRICAL_SURFACE('',#1236,1.384805002);
#1238=CARTESIAN_POINT('',(-48.654400699,68.053143721,-4.870052405));
#1239=VERTEX_POINT('',#1238);
#1240=CARTESIAN_POINT('',(-48.654400699,68.053143721,-4.870052405));
#1241=DIRECTION('',(-0.,-0.,1.));
#1242=VECTOR('',#1241,3.370052405);
#1243=LINE('',#1240,#1242);
#1244=EDGE_CURVE('',#1239,#809,#1243,.T.);
#1245=ORIENTED_EDGE('',*,*,#1244,.F.);
#1246=CARTESIAN_POINT('',(-48.654400699,66.66833872,-4.870052405));
#1247=DIRECTION('',(0.,0.,1.));
#1248=DIRECTION('',(1.,0.,-0.));
#1249=AXIS2_PLACEMENT_3D('',#1246,#1247,#1248);
#1250=CIRCLE('',#1249,1.384805002);
#1251=EDGE_CURVE('',#1239,#741,#1250,.T.);
#1252=ORIENTED_EDGE('',*,*,#1251,.T.);
#1253=ORIENTED_EDGE('',*,*,#779,.F.);
#1254=ORIENTED_EDGE('',*,*,#821,.F.);
#1255=EDGE_LOOP('',(#1245,#1252,#1253,#1254));
#1256=FACE_BOUND('',#1255,.T.);
#1257=ADVANCED_FACE('',(#1256),#1237,.T.);
#1258=CARTESIAN_POINT('',(-15.401724467,68.053143721,-302.442855464));
#1259=DIRECTION('',(0.,-1.,0.));
#1260=DIRECTION('',(0.,0.,-1.));
#1261=AXIS2_PLACEMENT_3D('',#1258,#1259,#1260);
#1262=PLANE('',#1261);
#1263=CARTESIAN_POINT('',(48.654400699,68.053143721,-4.870052405));
#1264=VERTEX_POINT('',#1263);
#1265=CARTESIAN_POINT('',(48.654400699,68.053143721,-1.5));
#1266=DIRECTION('',(0.,-0.,-1.));
#1267=VECTOR('',#1266,3.370052405);
#1268=LINE('',#1265,#1267);
#1269=EDGE_CURVE('',#800,#1264,#1268,.T.);
#1270=ORIENTED_EDGE('',*,*,#1269,.T.);
#1271=CARTESIAN_POINT('',(48.654400699,68.053143721,-4.870052405));
#1272=DIRECTION('',(-1.,0.,0.));
#1273=VECTOR('',#1272,97.308801397);
#1274=LINE('',#1271,#1273);
#1275=EDGE_CURVE('',#1264,#1239,#1274,.T.);
#1276=ORIENTED_EDGE('',*,*,#1275,.T.);
#1277=ORIENTED_EDGE('',*,*,#1244,.T.);
#1278=ORIENTED_EDGE('',*,*,#814,.T.);
#1279=EDGE_LOOP('',(#1270,#1276,#1277,#1278));
#1280=FACE_BOUND('',#1279,.T.);
#1281=ADVANCED_FACE('',(#1280),#1262,.F.);
#1282=CARTESIAN_POINT('',(0.,65.553143721,-5.));
#1283=DIRECTION('',(0.,1.,0.));
#1284=DIRECTION('',(0.,0.,1.));
#1285=AXIS2_PLACEMENT_3D('',#1282,#1283,#1284);
#1286=PLANE('',#1285);
#1287=ORIENTED_EDGE('',*,*,#305,.F.);
#1288=ORIENTED_EDGE('',*,*,#443,.T.);
#1289=ORIENTED_EDGE('',*,*,#846,.T.);
#1290=ORIENTED_EDGE('',*,*,#269,.F.);
#1291=EDGE_LOOP('',(#1287,#1288,#1289,#1290));
#1292=FACE_BOUND('',#1291,.T.);
#1293=ADVANCED_FACE('',(#1292),#1286,.F.);
#1294=CARTESIAN_POINT('',(17.,-42.960711035,-4.4));
#1295=DIRECTION('',(0.,0.,-1.));
#1296=DIRECTION('',(-1.,0.,0.));
#1297=AXIS2_PLACEMENT_3D('',#1294,#1295,#1296);
#1298=CYLINDRICAL_SURFACE('',#1297,2.);
#1299=ORIENTED_EDGE('',*,*,#413,.F.);
#1300=ORIENTED_EDGE('',*,*,#1228,.F.);
#1301=ORIENTED_EDGE('',*,*,#560,.F.);
#1302=ORIENTED_EDGE('',*,*,#870,.F.);
#1303=EDGE_LOOP('',(#1299,#1300,#1301,#1302));
#1304=FACE_BOUND('',#1303,.T.);
#1305=ADVANCED_FACE('',(#1304),#1298,.T.);
#1306=CARTESIAN_POINT('',(48.654400699,66.66833872,24.850221613));
#1307=DIRECTION('',(-0.,0.,1.));
#1308=DIRECTION('',(1.,0.,0.));
#1309=AXIS2_PLACEMENT_3D('',#1306,#1307,#1308);
#1310=CYLINDRICAL_SURFACE('',#1309,1.384805002);
#1311=ORIENTED_EDGE('',*,*,#911,.F.);
#1312=CARTESIAN_POINT('',(48.654400699,66.66833872,-4.870052405));
#1313=DIRECTION('',(0.,0.,1.));
#1314=DIRECTION('',(1.,0.,-0.));
#1315=AXIS2_PLACEMENT_3D('',#1312,#1313,#1314);
#1316=CIRCLE('',#1315,1.384805002);
#1317=EDGE_CURVE('',#900,#1264,#1316,.T.);
#1318=ORIENTED_EDGE('',*,*,#1317,.T.);
#1319=ORIENTED_EDGE('',*,*,#1269,.F.);
#1320=ORIENTED_EDGE('',*,*,#806,.F.);
#1321=EDGE_LOOP('',(#1311,#1318,#1319,#1320));
#1322=FACE_BOUND('',#1321,.T.);
#1323=ADVANCED_FACE('',(#1322),#1310,.T.);
#1324=CARTESIAN_POINT('',(48.909258105,-45.458953821,-4.870052405));
#1325=DIRECTION('',(0.,1.,0.));
#1326=DIRECTION('',(0.,-0.,1.));
#1327=AXIS2_PLACEMENT_3D('',#1324,#1325,#1326);
#1328=CYLINDRICAL_SURFACE('',#1327,1.129947595);
#1329=ORIENTED_EDGE('',*,*,#905,.F.);
#1330=CARTESIAN_POINT('',(48.909258105,-60.483442868,-4.870052405));
#1331=DIRECTION('',(0.,1.,0.));
#1332=DIRECTION('',(0.,-0.,1.));
#1333=AXIS2_PLACEMENT_3D('',#1330,#1331,#1332);
#1334=CIRCLE('',#1333,1.129947595);
#1335=EDGE_CURVE('',#891,#458,#1334,.T.);
#1336=ORIENTED_EDGE('',*,*,#1335,.T.);
#1337=ORIENTED_EDGE('',*,*,#463,.F.);
#1338=CARTESIAN_POINT('',(48.909258105,66.66833872,-4.870052405));
#1339=DIRECTION('',(0.,1.,0.));
#1340=DIRECTION('',(0.,-0.,1.));
#1341=AXIS2_PLACEMENT_3D('',#1338,#1339,#1340);
#1342=CIRCLE('',#1341,1.129947595);
#1343=EDGE_CURVE('',#900,#456,#1342,.T.);
#1344=ORIENTED_EDGE('',*,*,#1343,.F.);
#1345=EDGE_LOOP('',(#1329,#1336,#1337,#1344));
#1346=FACE_BOUND('',#1345,.T.);
#1347=ADVANCED_FACE('',(#1346),#1328,.T.);
#1348=CARTESIAN_POINT('',(48.654400699,66.66833872,-4.870052405));
#1349=DIRECTION('',(0.,0.,1.));
#1350=DIRECTION('',(1.,0.,-0.));
#1351=AXIS2_PLACEMENT_3D('',#1348,#1349,#1350);
#1352=DEGENERATE_TOROIDAL_SURFACE('',#1351,0.254857407,1.129947595,.T.);
#1353=ORIENTED_EDGE('',*,*,#1343,.T.);
#1354=ORIENTED_EDGE('',*,*,#535,.F.);
#1355=CARTESIAN_POINT('',(48.654400699,66.923196126,-4.870052405));
#1356=DIRECTION('',(-1.,-0.,0.));
#1357=DIRECTION('',(0.,0.,1.));
#1358=AXIS2_PLACEMENT_3D('',#1355,#1356,#1357);
#1359=CIRCLE('',#1358,1.129947595);
#1360=EDGE_CURVE('',#1264,#523,#1359,.T.);
#1361=ORIENTED_EDGE('',*,*,#1360,.F.);
#1362=ORIENTED_EDGE('',*,*,#1317,.F.);
#1363=EDGE_LOOP('',(#1353,#1354,#1361,#1362));
#1364=FACE_BOUND('',#1363,.T.);
#1365=ADVANCED_FACE('',(#1364),#1352,.T.);
#1366=CARTESIAN_POINT('',(-15.401724467,66.923196126,-4.870052405));
#1367=DIRECTION('',(-1.,0.,0.));
#1368=DIRECTION('',(0.,0.,1.));
#1369=AXIS2_PLACEMENT_3D('',#1366,#1367,#1368);
#1370=CYLINDRICAL_SURFACE('',#1369,1.129947595);
#1371=ORIENTED_EDGE('',*,*,#1360,.T.);
#1372=ORIENTED_EDGE('',*,*,#528,.F.);
#1373=CARTESIAN_POINT('',(-48.654400699,66.923196126,-4.870052405));
#1374=DIRECTION('',(-1.,0.,0.));
#1375=DIRECTION('',(0.,0.,1.));
#1376=AXIS2_PLACEMENT_3D('',#1373,#1374,#1375);
#1377=CIRCLE('',#1376,1.129947595);
#1378=EDGE_CURVE('',#1239,#514,#1377,.T.);
#1379=ORIENTED_EDGE('',*,*,#1378,.F.);
#1380=ORIENTED_EDGE('',*,*,#1275,.F.);
#1381=EDGE_LOOP('',(#1371,#1372,#1379,#1380));
#1382=FACE_BOUND('',#1381,.T.);
#1383=ADVANCED_FACE('',(#1382),#1370,.T.);
#1384=CARTESIAN_POINT('',(-48.654400699,66.66833872,-4.870052405));
#1385=DIRECTION('',(0.,0.,1.));
#1386=DIRECTION('',(1.,0.,-0.));
#1387=AXIS2_PLACEMENT_3D('',#1384,#1385,#1386);
#1388=DEGENERATE_TOROIDAL_SURFACE('',#1387,0.254857407,1.129947595,.T.);
#1389=ORIENTED_EDGE('',*,*,#1378,.T.);
#1390=ORIENTED_EDGE('',*,*,#520,.F.);
#1391=CARTESIAN_POINT('',(-48.909258105,66.66833872,-4.870052405));
#1392=DIRECTION('',(0.,-1.,0.));
#1393=DIRECTION('',(0.,0.,-1.));
#1394=AXIS2_PLACEMENT_3D('',#1391,#1392,#1393);
#1395=CIRCLE('',#1394,1.129947595);
#1396=EDGE_CURVE('',#741,#506,#1395,.T.);
#1397=ORIENTED_EDGE('',*,*,#1396,.F.);
#1398=ORIENTED_EDGE('',*,*,#1251,.F.);
#1399=EDGE_LOOP('',(#1389,#1390,#1397,#1398));
#1400=FACE_BOUND('',#1399,.T.);
#1401=ADVANCED_FACE('',(#1400),#1388,.T.);
#1402=CARTESIAN_POINT('',(-48.909258105,68.303143721,-4.870052405));
#1403=DIRECTION('',(0.,1.,0.));
#1404=DIRECTION('',(0.,-0.,1.));
#1405=AXIS2_PLACEMENT_3D('',#1402,#1403,#1404);
#1406=CYLINDRICAL_SURFACE('',#1405,1.129947595);
#1407=ORIENTED_EDGE('',*,*,#511,.F.);
#1408=CARTESIAN_POINT('',(-48.909258105,-60.483442868,-4.870052405));
#1409=DIRECTION('',(0.,1.,0.));
#1410=DIRECTION('',(0.,-0.,1.));
#1411=AXIS2_PLACEMENT_3D('',#1408,#1409,#1410);
#1412=CIRCLE('',#1411,1.129947595);
#1413=EDGE_CURVE('',#498,#743,#1412,.T.);
#1414=ORIENTED_EDGE('',*,*,#1413,.T.);
#1415=ORIENTED_EDGE('',*,*,#748,.F.);
#1416=ORIENTED_EDGE('',*,*,#1396,.T.);
#1417=EDGE_LOOP('',(#1407,#1414,#1415,#1416));
#1418=FACE_BOUND('',#1417,.T.);
#1419=ADVANCED_FACE('',(#1418),#1406,.T.);
#1420=CARTESIAN_POINT('',(50.0392057,-60.575906033,-4.857518546));
#1421=CARTESIAN_POINT('',(50.0392057,-60.615282358,-5.000090676));
#1422=CARTESIAN_POINT('',(50.009796189,-60.65464319,-5.14260671));
#1423=CARTESIAN_POINT('',(49.896590933,-60.727401152,-5.406045656));
#1424=CARTESIAN_POINT('',(49.812839731,-60.760769654,-5.526864915));
#1425=CARTESIAN_POINT('',(49.603663693,-60.816456187,-5.728492355));
#1426=CARTESIAN_POINT('',(49.478321161,-60.838752307,-5.809221204));
#1427=CARTESIAN_POINT('',(49.205019498,-60.868889642,-5.918341188));
#1428=CARTESIAN_POINT('',(49.0571679,-60.876718998,-5.94668939));
#1429=CARTESIAN_POINT('',(48.909258105,-60.876718998,-5.94668939));
#1430=CARTESIAN_POINT('',(50.0392057,-60.693034751,-4.851565043));
#1431=CARTESIAN_POINT('',(50.035875196,-60.741026533,-4.989558067));
#1432=CARTESIAN_POINT('',(50.003990026,-60.786512821,-5.127500001));
#1433=CARTESIAN_POINT('',(49.887792074,-60.865784666,-5.383092128));
#1434=CARTESIAN_POINT('',(49.803522467,-60.899540669,-5.500647679));
#1435=CARTESIAN_POINT('',(49.594989915,-60.95034585,-5.69806932));
#1436=CARTESIAN_POINT('',(49.470804317,-60.96737629,-5.777862266));
#1437=CARTESIAN_POINT('',(49.200783127,-60.982220103,-5.887926471));
#1438=CARTESIAN_POINT('',(49.055047635,-60.980028313,-5.918156876));
#1439=CARTESIAN_POINT('',(48.909258105,-60.96840454,-5.921367192));
#1440=CARTESIAN_POINT('',(50.024625478,-60.803693203,-4.843726216));
#1441=CARTESIAN_POINT('',(50.015961155,-60.85805545,-4.975258867));
#1442=CARTESIAN_POINT('',(49.980441234,-60.907802871,-5.106747653));
#1443=CARTESIAN_POINT('',(49.860680551,-60.991104217,-5.351333195));
#1444=CARTESIAN_POINT('',(49.776480085,-61.024630152,-5.464348346));
#1445=CARTESIAN_POINT('',(49.571192119,-61.070758237,-5.656082539));
#1446=CARTESIAN_POINT('',(49.450173315,-61.083345078,-5.734737497));
#1447=CARTESIAN_POINT('',(49.18825214,-61.085835116,-5.846651162));
#1448=CARTESIAN_POINT('',(49.04743726,-61.075737816,-5.879872263));
#1449=CARTESIAN_POINT('',(48.906575336,-61.055025748,-5.888025803));
#1450=CARTESIAN_POINT('',(49.985595676,-60.961307559,-4.829409107));
#1451=CARTESIAN_POINT('',(49.968449275,-61.020863473,-4.950151859));
#1452=CARTESIAN_POINT('',(49.927590451,-61.073502453,-5.070861087));
#1453=CARTESIAN_POINT('',(49.803652607,-61.15824685,-5.296873175));
#1454=CARTESIAN_POINT('',(49.720608094,-61.190328681,-5.402113273));
#1455=CARTESIAN_POINT('',(49.522929569,-61.229832789,-5.583685776));
#1456=CARTESIAN_POINT('',(49.408350505,-61.237244118,-5.65996773));
#1457=CARTESIAN_POINT('',(49.162278347,-61.226449768,-5.773823243));
#1458=CARTESIAN_POINT('',(49.030853612,-61.208247177,-5.811365113));
#1459=CARTESIAN_POINT('',(48.89939235,-61.17840247,-5.827130439));
#1460=CARTESIAN_POINT('',(49.969547542,-61.012710757,-4.824170682));
#1461=CARTESIAN_POINT('',(49.949477168,-61.073297683,-4.941104175));
#1462=CARTESIAN_POINT('',(49.906849002,-61.126337975,-5.058007542));
#1463=CARTESIAN_POINT('',(49.781712721,-61.210820549,-5.277434097));
#1464=CARTESIAN_POINT('',(49.699236937,-61.242241031,-5.379900747));
#1465=CARTESIAN_POINT('',(49.504581957,-61.279590488,-5.55778683));
#1466=CARTESIAN_POINT('',(49.392452964,-61.285509856,-5.633160399));
#1467=CARTESIAN_POINT('',(49.152332024,-61.271117724,-5.747529057));
#1468=CARTESIAN_POINT('',(49.024401966,-61.250809994,-5.786494607));
#1469=CARTESIAN_POINT('',(48.896438921,-61.21863952,-5.804848931));
#1470=CARTESIAN_POINT('',(49.932932682,-61.110476472,-4.813113482));
#1471=CARTESIAN_POINT('',(49.907336245,-61.171824851,-4.922427799));
#1472=CARTESIAN_POINT('',(49.861533845,-61.224670908,-5.031718173));
#1473=CARTESIAN_POINT('',(49.73471257,-61.307372993,-5.237889634));
#1474=CARTESIAN_POINT('',(49.65372157,-61.33721087,-5.334725557));
#1475=CARTESIAN_POINT('',(49.465749161,-61.370484291,-5.50494245));
#1476=CARTESIAN_POINT('',(49.358808982,-61.373912563,-5.5782861));
#1477=CARTESIAN_POINT('',(49.131121551,-61.353969753,-5.693140981));
#1478=CARTESIAN_POINT('',(49.010424198,-61.330603106,-5.734626976));
#1479=CARTESIAN_POINT('',(48.889700384,-61.295168163,-5.757819025));
#1480=CARTESIAN_POINT('',(49.912343101,-61.157077743,-4.807279943));
#1481=CARTESIAN_POINT('',(49.884132169,-61.21817494,-4.912770049));
#1482=CARTESIAN_POINT('',(49.836915996,-61.270438464,-5.018239013));
#1483=CARTESIAN_POINT('',(49.709598652,-61.351635738,-5.217716884));
#1484=CARTESIAN_POINT('',(49.629523073,-61.380553202,-5.311685813));
#1485=CARTESIAN_POINT('',(49.445215588,-61.411895119,-5.477908475));
#1486=CARTESIAN_POINT('',(49.341020659,-61.414313305,-5.550128871));
#1487=CARTESIAN_POINT('',(49.119832674,-61.392385952,-5.664962802));
#1488=CARTESIAN_POINT('',(49.002883961,-61.368044845,-5.707553263));
#1489=CARTESIAN_POINT('',(48.88591178,-61.331647328,-5.733005948));
#1490=CARTESIAN_POINT('',(49.844636206,-61.290751008,-4.788935453));
#1491=CARTESIAN_POINT('',(49.809344092,-61.349626702,-4.883078351));
#1492=CARTESIAN_POINT('',(49.758605456,-61.399051465,-4.977207538));
#1493=CARTESIAN_POINT('',(49.631016792,-61.474382104,-5.156684004));
#1494=CARTESIAN_POINT('',(49.554185708,-61.500276936,-5.242005113));
#1495=CARTESIAN_POINT('',(49.381634828,-61.526116646,-5.395867179));
#1496=CARTESIAN_POINT('',(49.28594037,-61.526057818,-5.464385589));
#1497=CARTESIAN_POINT('',(49.084633182,-61.500004431,-5.57819498));
#1498=CARTESIAN_POINT('',(48.979049866,-61.474013837,-5.623469093));
#1499=CARTESIAN_POINT('',(48.873451124,-61.436283525,-5.654980785));
#1500=CARTESIAN_POINT('',(49.791100886,-61.372234738,-4.775464623));
#1501=CARTESIAN_POINT('',(49.752128556,-61.427644676,-4.862173208));
#1502=CARTESIAN_POINT('',(49.700029504,-61.473701417,-4.948871719));
#1503=CARTESIAN_POINT('',(49.573945713,-61.543284719,-5.115047575));
#1504=CARTESIAN_POINT('',(49.499975779,-61.566803215,-5.194505605));
#1505=CARTESIAN_POINT('',(49.336347343,-61.58934505,-5.339555818));
#1506=CARTESIAN_POINT('',(49.24670793,-61.588365797,-5.405131093));
#1507=CARTESIAN_POINT('',(49.059234799,-61.561993755,-5.516917136));
#1508=CARTESIAN_POINT('',(48.96142289,-61.536604059,-5.56311479));
#1509=CARTESIAN_POINT('',(48.863599583,-61.500068144,-5.597681633));
#1510=CARTESIAN_POINT('',(49.675196769,-61.516226247,-4.747461792));
#1511=CARTESIAN_POINT('',(49.631770478,-61.56318266,-4.820391877));
#1512=CARTESIAN_POINT('',(49.579235455,-61.601578206,-4.893316979));
#1513=CARTESIAN_POINT('',(49.459375344,-61.658779728,-5.034466414));
#1514=CARTESIAN_POINT('',(49.392058633,-61.677581818,-5.10268109));
#1515=CARTESIAN_POINT('',(49.24701013,-61.694384654,-5.229994922));
#1516=CARTESIAN_POINT('',(49.169288345,-61.692384283,-5.28908531));
#1517=CARTESIAN_POINT('',(49.008461893,-61.667715137,-5.394310388));
#1518=CARTESIAN_POINT('',(48.92536825,-61.645048082,-5.440437736));
#1519=CARTESIAN_POINT('',(48.842268898,-61.612781181,-5.478576268));
#1520=CARTESIAN_POINT('',(49.61256592,-61.57946235,-4.732854018));
#1521=CARTESIAN_POINT('',(49.568287317,-61.621434729,-4.799365012));
#1522=CARTESIAN_POINT('',(49.516624276,-61.655530645,-4.865872564));
#1523=CARTESIAN_POINT('',(49.40143465,-61.706076091,-4.995170256));
#1524=CARTESIAN_POINT('',(49.337914082,-61.722523031,-5.057953702));
#1525=CARTESIAN_POINT('',(49.202578207,-61.736853276,-5.176283591));
#1526=CARTESIAN_POINT('',(49.13076993,-61.734735851,-5.231823891));
#1527=CARTESIAN_POINT('',(48.982884486,-61.712055215,-5.332546553));
#1528=CARTESIAN_POINT('',(48.906814981,-61.691493175,-5.377723657));
#1529=CARTESIAN_POINT('',(48.830741522,-61.662281448,-5.41644679));
#1530=CARTESIAN_POINT('',(49.479874968,-61.691163001,-4.702547122));
#1531=CARTESIAN_POINT('',(49.436340603,-61.723112522,-4.756934124));
#1532=CARTESIAN_POINT('',(49.388266118,-61.748766032,-4.811319745));
#1533=CARTESIAN_POINT('',(49.284980705,-61.786469536,-4.917921058));
#1534=CARTESIAN_POINT('',(49.229772473,-61.7985186,-4.970134035));
#1535=CARTESIAN_POINT('',(49.114440657,-61.80853798,-5.070299832));
#1536=CARTESIAN_POINT('',(49.05432004,-61.806508053,-5.118250081));
#1537=CARTESIAN_POINT('',(48.931571838,-61.788451297,-5.207962329));
#1538=CARTESIAN_POINT('',(48.868947385,-61.772424921,-5.249721991));
#1539=CARTESIAN_POINT('',(48.806321326,-61.749717958,-5.287541549));
#1540=CARTESIAN_POINT('',(49.409311825,-61.739790613,-4.686741612));
#1541=CARTESIAN_POINT('',(49.36739282,-61.766664019,-4.73538943));
#1542=CARTESIAN_POINT('',(49.322058918,-61.788144107,-4.784036387));
#1543=CARTESIAN_POINT('',(49.226064038,-61.819618313,-4.879726686));
#1544=CARTESIAN_POINT('',(49.175404777,-61.829611884,-4.926768331));
#1545=CARTESIAN_POINT('',(49.070436156,-61.837786943,-5.017694157));
#1546=CARTESIAN_POINT('',(49.016128665,-61.83596829,-5.061576722));
#1547=CARTESIAN_POINT('',(48.905657832,-61.820578252,-5.14473196));
#1548=CARTESIAN_POINT('',(48.849496452,-61.807007135,-5.184003147));
#1549=CARTESIAN_POINT('',(48.793334072,-61.787781111,-5.220317251));
#1550=CARTESIAN_POINT('',(49.265492534,-61.82133162,-4.654905919));
#1551=CARTESIAN_POINT('',(49.228644392,-61.839116719,-4.692796407));
#1552=CARTESIAN_POINT('',(49.190064761,-61.853215776,-4.730686658));
#1553=CARTESIAN_POINT('',(49.11025003,-61.873761608,-4.805686113));
#1554=CARTESIAN_POINT('',(49.069015451,-61.880208268,-4.842794843));
#1555=CARTESIAN_POINT('',(48.984748255,-61.885321478,-4.915464015));
#1556=CARTESIAN_POINT('',(48.941716177,-61.883988,-4.951023991));
#1557=CARTESIAN_POINT('',(48.854744414,-61.873568027,-5.019856782));
#1558=CARTESIAN_POINT('',(48.81080528,-61.864481591,-5.053129148));
#1559=CARTESIAN_POINT('',(48.766865865,-61.85160941,-5.084909537));
#1560=CARTESIAN_POINT('',(49.191941094,-61.854595497,-4.638806125));
#1561=CARTESIAN_POINT('',(49.158534411,-61.868333011,-4.671644615));
#1562=CARTESIAN_POINT('',(49.123966402,-61.879193688,-4.704482978));
#1563=CARTESIAN_POINT('',(49.053056591,-61.894994038,-4.769640749));
#1564=CARTESIAN_POINT('',(49.016715073,-61.899933652,-4.801959898));
#1565=CARTESIAN_POINT('',(48.942834355,-61.903815709,-4.865567835));
#1566=CARTESIAN_POINT('',(48.90529545,-61.902758138,-4.896856369));
#1567=CARTESIAN_POINT('',(48.829614101,-61.894662156,-4.957907175));
#1568=CARTESIAN_POINT('',(48.791471958,-61.887623776,-4.987669203));
#1569=CARTESIAN_POINT('',(48.753329659,-61.877649268,-5.016431643));
#1570=CARTESIAN_POINT('',(49.042180912,-61.907680387,-4.606235897));
#1571=CARTESIAN_POINT('',(49.016869577,-61.914756501,-4.629329064));
#1572=CARTESIAN_POINT('',(48.991163743,-61.920319783,-4.652422221));
#1573=CARTESIAN_POINT('',(48.939157357,-61.928385509,-4.698437609));
#1574=CARTESIAN_POINT('',(48.912856833,-61.930887954,-4.721359818));
#1575=CARTESIAN_POINT('',(48.859857916,-61.932816298,-4.766863064));
#1576=CARTESIAN_POINT('',(48.833159551,-61.932242197,-4.789444077));
#1577=CARTESIAN_POINT('',(48.779563458,-61.928021208,-4.8340961));
#1578=CARTESIAN_POINT('',(48.752665758,-61.924374319,-4.856167084));
#1579=CARTESIAN_POINT('',(48.725768042,-61.919202647,-4.877899722));
#1580=CARTESIAN_POINT('',(48.965963121,-61.927488808,-4.589766369));
#1581=CARTESIAN_POINT('',(48.945308008,-61.931946766,-4.608168244));
#1582=CARTESIAN_POINT('',(48.924454916,-61.935447604,-4.626570112));
#1583=CARTESIAN_POINT('',(48.882450296,-61.940519781,-4.663288067));
#1584=CARTESIAN_POINT('',(48.86129878,-61.942091117,-4.681604142));
#1585=CARTESIAN_POINT('',(48.818796095,-61.943297439,-4.718065069));
#1586=CARTESIAN_POINT('',(48.79744494,-61.942932424,-4.736209911));
#1587=CARTESIAN_POINT('',(48.754642587,-61.940267637,-4.772243646));
#1588=CARTESIAN_POINT('',(48.733191404,-61.937967866,-4.790132527));
#1589=CARTESIAN_POINT('',(48.711740213,-61.934705732,-4.8078516));
#1590=CARTESIAN_POINT('',(48.811224571,-61.954040066,-4.556424143));
#1591=CARTESIAN_POINT('',(48.800561894,-61.95495587,-4.56555858));
#1592=CARTESIAN_POINT('',(48.789898697,-61.955671936,-4.574693018));
#1593=CARTESIAN_POINT('',(48.768571889,-61.956706721,-4.592961918));
#1594=CARTESIAN_POINT('',(48.757908275,-61.957025441,-4.602096383));
#1595=CARTESIAN_POINT('',(48.736580943,-61.957266496,-4.620365274));
#1596=CARTESIAN_POINT('',(48.725917223,-61.957188832,-4.629499704));
#1597=CARTESIAN_POINT('',(48.704589783,-61.956636904,-4.647768285));
#1598=CARTESIAN_POINT('',(48.693926061,-61.956162639,-4.656902441));
#1599=CARTESIAN_POINT('',(48.683262341,-61.955489379,-4.666036206));
#1600=CARTESIAN_POINT('',(48.732745575,-61.960711035,-4.539563635));
#1601=CARTESIAN_POINT('',(48.732745575,-61.960711035,-4.539563635));
#1602=CARTESIAN_POINT('',(48.716763919,-61.960711035,-4.553253675));
#1603=CARTESIAN_POINT('',(48.716763919,-61.960711035,-4.553253675));
#1604=CARTESIAN_POINT('',(48.700782264,-61.960711035,-4.566943714));
#1605=CARTESIAN_POINT('',(48.700782264,-61.960711035,-4.566943714));
#1606=CARTESIAN_POINT('',(48.684800608,-61.960711035,-4.580633754));
#1607=CARTESIAN_POINT('',(48.684800608,-61.960711035,-4.580633754));
#1608=CARTESIAN_POINT('',(48.668818953,-61.960711035,-4.594323793));
#1609=CARTESIAN_POINT('',(48.668818953,-61.960711035,-4.594323793));
#1610=CARTESIAN_POINT('',(48.654400699,-61.960711035,-4.522731833));
#1611=CARTESIAN_POINT('',(48.654400699,-61.960711035,-4.522731833));
#1612=CARTESIAN_POINT('',(48.654400699,-61.960711035,-4.522731833));
#1613=CARTESIAN_POINT('',(48.654400699,-61.960711035,-4.522731833));
#1614=CARTESIAN_POINT('',(48.654400699,-61.960711035,-4.522731833));
#1615=CARTESIAN_POINT('',(48.654400699,-61.960711035,-4.522731833));
#1616=CARTESIAN_POINT('',(48.654400699,-61.960711035,-4.522731833));
#1617=CARTESIAN_POINT('',(48.654400699,-61.960711035,-4.522731833));
#1618=CARTESIAN_POINT('',(48.654400699,-61.960711035,-4.522731833));
#1619=CARTESIAN_POINT('',(48.654400699,-61.960711035,-4.522731833));
#1620=B_SPLINE_SURFACE_WITH_KNOTS('',3,3,((#1420,#1421,#1422,#1423,#1424,#1425,#1426,#1427,#1428,#1429),(#1430,#1431,#1432,#1433,#1434,#1435,#1436,#1437,#1438,#1439),(#1440,#1441,#1442,#1443,#1444,#1445,#1446,#1447,#1448,#1449),(#1450,#1451,#1452,#1453,#1454,#1455,#1456,#1457,#1458,#1459),(#1460,#1461,#1462,#1463,#1464,#1465,#1466,#1467,#1468,#1469),(#1470,#1471,#1472,#1473,#1474,#1475,#1476,#1477,#1478,#1479),(#1480,#1481,#1482,#1483,#1484,#1485,#1486,#1487,#1488,#1489),(#1490,#1491,#1492,#1493,#1494,#1495,#1496,#1497,#1498,#1499),(#1500,#1501,#1502,#1503,#1504,#1505,#1506,#1507,#1508,#1509),(#1510,#1511,#1512,#1513,#1514,#1515,#1516,#1517,#1518,#1519),(#1520,#1521,#1522,#1523,#1524,#1525,#1526,#1527,#1528,#1529),(#1530,#1531,#1532,#1533,#1534,#1535,#1536,#1537,#1538,#1539),(#1540,#1541,#1542,#1543,#1544,#1545,#1546,#1547,#1548,#1549),(#1550,#1551,#1552,#1553,#1554,#1555,#1556,#1557,#1558,#1559),(#1560,#1561,#1562,#1563,#1564,#1565,#1566,#1567,#1568,#1569),(#1570,#1571,#1572,#1573,#1574,#1575,#1576,#1577,#1578,#1579),(#1580,#1581,#1582,#1583,#1584,#1585,#1586,#1587,#1588,#1589),(#1590,#1591,#1592,#1593,#1594,#1595,#1596,#1597,#1598,#1599),(#1600,#1601,#1602,#1603,#1604,#1605,#1606,#1607,#1608,#1609),(#1610,#1611,#1612,#1613,#1614,#1615,#1616,#1617,#1618,#1619)),.UNSPECIFIED.,.F.,.F.,.U.,(4,2,2,2,2,2,2,2,2,4),(4,2,2,2,4),(0.,0.000065929,0.000098894,0.000131859,0.000197788,0.000263718,0.000329647,0.000395576,0.000461506,0.000527435),(0.,0.25,0.5,0.75,1.),.UNSPECIFIED.);
#1621=CARTESIAN_POINT('',(48.909258105,-60.876718998,-5.94668939));
#1622=VERTEX_POINT('',#1621);
#1623=CARTESIAN_POINT('',(48.909258105,-60.575906033,-4.857518546));
#1624=DIRECTION('',(-0.,0.963912706,-0.26621851));
#1625=DIRECTION('',(0.,-0.26621851,-0.963912706));
#1626=AXIS2_PLACEMENT_3D('',#1623,#1624,#1625);
#1627=CIRCLE('',#1626,1.129947595);
#1628=EDGE_CURVE('',#883,#1622,#1627,.T.);
#1629=ORIENTED_EDGE('',*,*,#1628,.F.);
#1630=ORIENTED_EDGE('',*,*,#958,.T.);
#1631=CARTESIAN_POINT('',(48.909258105,-60.876718998,-5.94668939));
#1632=CARTESIAN_POINT('',(48.909258105,-60.96840454,-5.921367192));
#1633=CARTESIAN_POINT('',(48.906575336,-61.055025748,-5.888025803));
#1634=CARTESIAN_POINT('',(48.901786679,-61.137276896,-5.847428893));
#1635=CARTESIAN_POINT('',(48.896998022,-61.219528044,-5.806831984));
#1636=CARTESIAN_POINT('',(48.890065332,-61.296768595,-5.759014336));
#1637=CARTESIAN_POINT('',(48.881758228,-61.36652606,-5.706997561));
#1638=CARTESIAN_POINT('',(48.873451124,-61.436283525,-5.654980785));
#1639=CARTESIAN_POINT('',(48.863599583,-61.500068144,-5.597681633));
#1640=CARTESIAN_POINT('',(48.852934241,-61.556424662,-5.53812895));
#1641=CARTESIAN_POINT('',(48.842268898,-61.612781181,-5.478576268));
#1642=CARTESIAN_POINT('',(48.830741522,-61.662281448,-5.41644679));
#1643=CARTESIAN_POINT('',(48.818531424,-61.705999703,-5.351994169));
#1644=CARTESIAN_POINT('',(48.806321326,-61.749717958,-5.287541549));
#1645=CARTESIAN_POINT('',(48.793334072,-61.787781111,-5.220317251));
#1646=CARTESIAN_POINT('',(48.780099969,-61.819695261,-5.152613394));
#1647=CARTESIAN_POINT('',(48.766865865,-61.85160941,-5.084909537));
#1648=CARTESIAN_POINT('',(48.753329659,-61.877649268,-5.016431643));
#1649=CARTESIAN_POINT('',(48.739548851,-61.898425958,-4.947165683));
#1650=CARTESIAN_POINT('',(48.711987234,-61.939979336,-4.808633761));
#1651=CARTESIAN_POINT('',(48.683237207,-61.960711035,-4.665915753));
#1652=CARTESIAN_POINT('',(48.654400699,-61.960711035,-4.522731833));
#1653=B_SPLINE_CURVE_WITH_KNOTS('',3,(#1631,#1632,#1633,#1634,#1635,#1636,#1637,#1638,#1639,#1640,#1641,#1642,#1643,#1644,#1645,#1646,#1647,#1648,#1649,#1650,#1651,#1652),.UNSPECIFIED.,.F.,.F.,(4,3,3,3,3,3,3,4),(0.,0.000065929,0.000131859,0.000197788,0.000263718,0.000329647,0.000395576,0.000527435),.UNSPECIFIED.);
#1654=EDGE_CURVE('',#1622,#669,#1653,.T.);
#1655=ORIENTED_EDGE('',*,*,#1654,.F.);
#1656=EDGE_LOOP('',(#1629,#1630,#1655));
#1657=FACE_BOUND('',#1656,.T.);
#1658=ADVANCED_FACE('',(#1657),#1620,.T.);
#1659=CARTESIAN_POINT('',(48.909258105,-60.483442868,-4.522731833));
#1660=DIRECTION('',(-1.,0.,-0.));
#1661=DIRECTION('',(-0.,0.,1.));
#1662=AXIS2_PLACEMENT_3D('',#1659,#1660,#1661);
#1663=DEGENERATE_TOROIDAL_SURFACE('',#1662,0.347320572,1.129947595,.T.);
#1664=ORIENTED_EDGE('',*,*,#897,.F.);
#1665=ORIENTED_EDGE('',*,*,#1628,.T.);
#1666=CARTESIAN_POINT('',(48.909258105,-60.483442868,-4.522731833));
#1667=DIRECTION('',(-1.,0.,-0.));
#1668=DIRECTION('',(-0.,0.,1.));
#1669=AXIS2_PLACEMENT_3D('',#1666,#1667,#1668);
#1670=CIRCLE('',#1669,1.477268167);
#1671=EDGE_CURVE('',#458,#1622,#1670,.T.);
#1672=ORIENTED_EDGE('',*,*,#1671,.F.);
#1673=ORIENTED_EDGE('',*,*,#1335,.F.);
#1674=EDGE_LOOP('',(#1664,#1665,#1672,#1673));
#1675=FACE_BOUND('',#1674,.T.);
#1676=ADVANCED_FACE('',(#1675),#1663,.T.);
#1677=CARTESIAN_POINT('',(50.0392057,-60.483442868,-4.522731833));
#1678=DIRECTION('',(1.,0.,0.));
#1679=DIRECTION('',(0.,0.,-1.));
#1680=AXIS2_PLACEMENT_3D('',#1677,#1678,#1679);
#1681=CYLINDRICAL_SURFACE('',#1680,1.477268167);
#1682=ORIENTED_EDGE('',*,*,#1654,.T.);
#1683=ORIENTED_EDGE('',*,*,#674,.F.);
#1684=ORIENTED_EDGE('',*,*,#1034,.F.);
#1685=ORIENTED_EDGE('',*,*,#471,.F.);
#1686=ORIENTED_EDGE('',*,*,#1671,.T.);
#1687=EDGE_LOOP('',(#1682,#1683,#1684,#1685,#1686));
#1688=FACE_BOUND('',#1687,.T.);
#1689=ADVANCED_FACE('',(#1688),#1681,.T.);
#1690=CARTESIAN_POINT('',(-48.909258105,-60.876718998,-5.94668939));
#1691=CARTESIAN_POINT('',(-49.0571679,-60.876718998,-5.94668939));
#1692=CARTESIAN_POINT('',(-49.205019498,-60.868889642,-5.918341188));
#1693=CARTESIAN_POINT('',(-49.478321161,-60.838752307,-5.809221204));
#1694=CARTESIAN_POINT('',(-49.603663693,-60.816456187,-5.728492355));
#1695=CARTESIAN_POINT('',(-49.812839731,-60.760769654,-5.526864915));
#1696=CARTESIAN_POINT('',(-49.896590933,-60.727401152,-5.406045656));
#1697=CARTESIAN_POINT('',(-50.009796189,-60.65464319,-5.14260671));
#1698=CARTESIAN_POINT('',(-50.0392057,-60.615282358,-5.000090676));
#1699=CARTESIAN_POINT('',(-50.0392057,-60.575906033,-4.857518546));
#1700=CARTESIAN_POINT('',(-48.909258105,-60.96840454,-5.921367192));
#1701=CARTESIAN_POINT('',(-49.055047635,-60.980028313,-5.918156876));
#1702=CARTESIAN_POINT('',(-49.200783127,-60.982220103,-5.887926471));
#1703=CARTESIAN_POINT('',(-49.470804317,-60.96737629,-5.777862266));
#1704=CARTESIAN_POINT('',(-49.594989915,-60.95034585,-5.69806932));
#1705=CARTESIAN_POINT('',(-49.803522467,-60.899540669,-5.500647679));
#1706=CARTESIAN_POINT('',(-49.887792074,-60.865784666,-5.383092128));
#1707=CARTESIAN_POINT('',(-50.003990026,-60.786512821,-5.127500001));
#1708=CARTESIAN_POINT('',(-50.035875196,-60.741026533,-4.989558067));
#1709=CARTESIAN_POINT('',(-50.0392057,-60.693034751,-4.851565043));
#1710=CARTESIAN_POINT('',(-48.906575335,-61.055025746,-5.888025798));
#1711=CARTESIAN_POINT('',(-49.047437259,-61.075737813,-5.879872259));
#1712=CARTESIAN_POINT('',(-49.188252139,-61.085835113,-5.846651158));
#1713=CARTESIAN_POINT('',(-49.450173314,-61.083345076,-5.734737493));
#1714=CARTESIAN_POINT('',(-49.571192118,-61.070758235,-5.656082535));
#1715=CARTESIAN_POINT('',(-49.776480083,-61.02463015,-5.464348343));
#1716=CARTESIAN_POINT('',(-49.860680549,-60.991104216,-5.351333192));
#1717=CARTESIAN_POINT('',(-49.980441231,-60.907802869,-5.106747651));
#1718=CARTESIAN_POINT('',(-50.015961153,-60.858055448,-4.975258866));
#1719=CARTESIAN_POINT('',(-50.024625476,-60.803693202,-4.843726216));
#1720=CARTESIAN_POINT('',(-48.89939235,-61.178402471,-5.827130441));
#1721=CARTESIAN_POINT('',(-49.030853612,-61.208247179,-5.811365115));
#1722=CARTESIAN_POINT('',(-49.162278348,-61.226449769,-5.773823245));
#1723=CARTESIAN_POINT('',(-49.408350506,-61.237244119,-5.659967732));
#1724=CARTESIAN_POINT('',(-49.522929569,-61.22983279,-5.583685778));
#1725=CARTESIAN_POINT('',(-49.720608095,-61.190328682,-5.402113275));
#1726=CARTESIAN_POINT('',(-49.803652608,-61.158246851,-5.296873176));
#1727=CARTESIAN_POINT('',(-49.927590452,-61.073502454,-5.070861088));
#1728=CARTESIAN_POINT('',(-49.968449276,-61.020863473,-4.95015186));
#1729=CARTESIAN_POINT('',(-49.985595678,-60.961307559,-4.829409107));
#1730=CARTESIAN_POINT('',(-48.896438924,-61.218639517,-5.804848924));
#1731=CARTESIAN_POINT('',(-49.02440197,-61.250809991,-5.7864946));
#1732=CARTESIAN_POINT('',(-49.152332028,-61.271117722,-5.747529051));
#1733=CARTESIAN_POINT('',(-49.392452969,-61.285509854,-5.633160392));
#1734=CARTESIAN_POINT('',(-49.504581962,-61.279590486,-5.557786823));
#1735=CARTESIAN_POINT('',(-49.699236943,-61.24224103,-5.379900741));
#1736=CARTESIAN_POINT('',(-49.781712727,-61.210820548,-5.277434091));
#1737=CARTESIAN_POINT('',(-49.906849008,-61.126337974,-5.058007538));
#1738=CARTESIAN_POINT('',(-49.949477174,-61.073297683,-4.941104172));
#1739=CARTESIAN_POINT('',(-49.969547548,-61.012710758,-4.824170679));
#1740=CARTESIAN_POINT('',(-48.88970038,-61.295168166,-5.757819032));
#1741=CARTESIAN_POINT('',(-49.010424194,-61.330603108,-5.734626983));
#1742=CARTESIAN_POINT('',(-49.131121547,-61.353969756,-5.693140988));
#1743=CARTESIAN_POINT('',(-49.358808977,-61.373912565,-5.578286107));
#1744=CARTESIAN_POINT('',(-49.465749156,-61.370484293,-5.504942456));
#1745=CARTESIAN_POINT('',(-49.653721564,-61.337210872,-5.334725563));
#1746=CARTESIAN_POINT('',(-49.734712564,-61.307372994,-5.237889639));
#1747=CARTESIAN_POINT('',(-49.861533839,-61.224670908,-5.031718177));
#1748=CARTESIAN_POINT('',(-49.907336239,-61.171824852,-4.922427803));
#1749=CARTESIAN_POINT('',(-49.932932677,-61.110476472,-4.813113485));
#1750=CARTESIAN_POINT('',(-48.885911786,-61.331647321,-5.733005936));
#1751=CARTESIAN_POINT('',(-49.002883967,-61.368044839,-5.70755325));
#1752=CARTESIAN_POINT('',(-49.11983268,-61.392385946,-5.66496279));
#1753=CARTESIAN_POINT('',(-49.341020666,-61.414313299,-5.550128858));
#1754=CARTESIAN_POINT('',(-49.445215595,-61.411895113,-5.477908463));
#1755=CARTESIAN_POINT('',(-49.629523081,-61.380553197,-5.311685801));
#1756=CARTESIAN_POINT('',(-49.709598659,-61.351635733,-5.217716873));
#1757=CARTESIAN_POINT('',(-49.836916002,-61.27043846,-5.018239004));
#1758=CARTESIAN_POINT('',(-49.884132174,-61.218174937,-4.912770041));
#1759=CARTESIAN_POINT('',(-49.912343107,-61.15707774,-4.807279936));
#1760=CARTESIAN_POINT('',(-48.873451112,-61.436283537,-5.65498081));
#1761=CARTESIAN_POINT('',(-48.979049854,-61.474013849,-5.623469119));
#1762=CARTESIAN_POINT('',(-49.084633168,-61.500004444,-5.578195005));
#1763=CARTESIAN_POINT('',(-49.285940356,-61.52605783,-5.464385614));
#1764=CARTESIAN_POINT('',(-49.381634814,-61.526116658,-5.395867204));
#1765=CARTESIAN_POINT('',(-49.554185694,-61.500276946,-5.242005136));
#1766=CARTESIAN_POINT('',(-49.631016779,-61.474382113,-5.156684026));
#1767=CARTESIAN_POINT('',(-49.758605444,-61.399051472,-4.977207557));
#1768=CARTESIAN_POINT('',(-49.80934408,-61.349626708,-4.883078368));
#1769=CARTESIAN_POINT('',(-49.844636195,-61.290751013,-4.788935467));
#1770=CARTESIAN_POINT('',(-48.863599649,-61.500068118,-5.597681558));
#1771=CARTESIAN_POINT('',(-48.961422959,-61.536604031,-5.563114711));
#1772=CARTESIAN_POINT('',(-49.05923487,-61.561993726,-5.516917055));
#1773=CARTESIAN_POINT('',(-49.246708002,-61.588365765,-5.405131008));
#1774=CARTESIAN_POINT('',(-49.336347414,-61.589345017,-5.339555732));
#1775=CARTESIAN_POINT('',(-49.499975849,-61.566803181,-5.19450552));
#1776=CARTESIAN_POINT('',(-49.573945781,-61.543284685,-5.115047491));
#1777=CARTESIAN_POINT('',(-49.700029566,-61.473701384,-4.94887164));
#1778=CARTESIAN_POINT('',(-49.752128614,-61.427644644,-4.862173133));
#1779=CARTESIAN_POINT('',(-49.79110094,-61.372234707,-4.775464553));
#1780=CARTESIAN_POINT('',(-48.842268832,-61.612781207,-5.478576343));
#1781=CARTESIAN_POINT('',(-48.925368181,-61.64504811,-5.440437815));
#1782=CARTESIAN_POINT('',(-49.008461822,-61.667715167,-5.394310469));
#1783=CARTESIAN_POINT('',(-49.169288273,-61.692384314,-5.289085395));
#1784=CARTESIAN_POINT('',(-49.247010058,-61.694384686,-5.229995007));
#1785=CARTESIAN_POINT('',(-49.392058563,-61.677581852,-5.102681175));
#1786=CARTESIAN_POINT('',(-49.459375276,-61.658779762,-5.034466497));
#1787=CARTESIAN_POINT('',(-49.579235393,-61.601578239,-4.893317058));
#1788=CARTESIAN_POINT('',(-49.631770419,-61.563182692,-4.820391952));
#1789=CARTESIAN_POINT('',(-49.675196715,-61.516226278,-4.747461863));
#1790=CARTESIAN_POINT('',(-48.830741545,-61.662281412,-5.416446747));
#1791=CARTESIAN_POINT('',(-48.906815003,-61.691493137,-5.377723613));
#1792=CARTESIAN_POINT('',(-48.982884508,-61.712055175,-5.332546508));
#1793=CARTESIAN_POINT('',(-49.13076995,-61.734735807,-5.231823845));
#1794=CARTESIAN_POINT('',(-49.202578227,-61.736853231,-5.176283545));
#1795=CARTESIAN_POINT('',(-49.3379141,-61.722522984,-5.057953656));
#1796=CARTESIAN_POINT('',(-49.401434666,-61.706076044,-4.995170211));
#1797=CARTESIAN_POINT('',(-49.516624289,-61.655530596,-4.865872521));
#1798=CARTESIAN_POINT('',(-49.568287329,-61.621434681,-4.799364969));
#1799=CARTESIAN_POINT('',(-49.612565931,-61.579462302,-4.732853977));
#1800=CARTESIAN_POINT('',(-48.806321304,-61.749717994,-5.287541591));
#1801=CARTESIAN_POINT('',(-48.868947363,-61.772424959,-5.249722035));
#1802=CARTESIAN_POINT('',(-48.931571816,-61.788451337,-5.207962374));
#1803=CARTESIAN_POINT('',(-49.05432002,-61.806508097,-5.118250127));
#1804=CARTESIAN_POINT('',(-49.114440638,-61.808538025,-5.070299878));
#1805=CARTESIAN_POINT('',(-49.229772456,-61.798518648,-4.970134081));
#1806=CARTESIAN_POINT('',(-49.284980689,-61.786469584,-4.917921103));
#1807=CARTESIAN_POINT('',(-49.388266105,-61.74876608,-4.811319788));
#1808=CARTESIAN_POINT('',(-49.436340591,-61.72311257,-4.756934167));
#1809=CARTESIAN_POINT('',(-49.479874957,-61.691163049,-4.702547163));
#1810=CARTESIAN_POINT('',(-48.79333411,-61.787781091,-5.220317209));
#1811=CARTESIAN_POINT('',(-48.849496491,-61.807007113,-5.184003105));
#1812=CARTESIAN_POINT('',(-48.905657871,-61.820578228,-5.144731916));
#1813=CARTESIAN_POINT('',(-49.016128702,-61.835968262,-5.061576677));
#1814=CARTESIAN_POINT('',(-49.070436193,-61.837786913,-5.017694112));
#1815=CARTESIAN_POINT('',(-49.175404812,-61.82961185,-4.926768285));
#1816=CARTESIAN_POINT('',(-49.226064073,-61.819618277,-4.87972664));
#1817=CARTESIAN_POINT('',(-49.322058951,-61.788144068,-4.784036341));
#1818=CARTESIAN_POINT('',(-49.367392852,-61.766663979,-4.735389385));
#1819=CARTESIAN_POINT('',(-49.409311856,-61.739790571,-4.686741567));
#1820=CARTESIAN_POINT('',(-48.766865827,-61.85160943,-5.084909578));
#1821=CARTESIAN_POINT('',(-48.810805241,-61.864481613,-5.05312919));
#1822=CARTESIAN_POINT('',(-48.854744376,-61.873568051,-5.019856825));
#1823=CARTESIAN_POINT('',(-48.941716139,-61.883988029,-4.951024036));
#1824=CARTESIAN_POINT('',(-48.984748217,-61.885321508,-4.91546406));
#1825=CARTESIAN_POINT('',(-49.069015415,-61.880208302,-4.842794889));
#1826=CARTESIAN_POINT('',(-49.110249995,-61.873761644,-4.805686159));
#1827=CARTESIAN_POINT('',(-49.190064728,-61.853215815,-4.730686704));
#1828=CARTESIAN_POINT('',(-49.228644361,-61.839116759,-4.692796453));
#1829=CARTESIAN_POINT('',(-49.265492504,-61.821331662,-4.654905964));
#1830=CARTESIAN_POINT('',(-48.753329669,-61.877649171,-5.016431606));
#1831=CARTESIAN_POINT('',(-48.791471968,-61.887623676,-4.987669165));
#1832=CARTESIAN_POINT('',(-48.82961411,-61.894662055,-4.957907137));
#1833=CARTESIAN_POINT('',(-48.905295458,-61.902758034,-4.89685633));
#1834=CARTESIAN_POINT('',(-48.942834363,-61.903815604,-4.865567796));
#1835=CARTESIAN_POINT('',(-49.01671508,-61.899933544,-4.80195986));
#1836=CARTESIAN_POINT('',(-49.053056598,-61.89499393,-4.76964071));
#1837=CARTESIAN_POINT('',(-49.123966408,-61.879193578,-4.704482939));
#1838=CARTESIAN_POINT('',(-49.158534417,-61.868332901,-4.671644577));
#1839=CARTESIAN_POINT('',(-49.1919411,-61.854595387,-4.638806087));
#1840=CARTESIAN_POINT('',(-48.725768033,-61.919202745,-4.877899759));
#1841=CARTESIAN_POINT('',(-48.752665749,-61.924374419,-4.856167122));
#1842=CARTESIAN_POINT('',(-48.779563449,-61.928021309,-4.834096138));
#1843=CARTESIAN_POINT('',(-48.833159542,-61.932242302,-4.789444115));
#1844=CARTESIAN_POINT('',(-48.859857908,-61.932816404,-4.766863102));
#1845=CARTESIAN_POINT('',(-48.912856825,-61.930888062,-4.721359857));
#1846=CARTESIAN_POINT('',(-48.939157349,-61.928385617,-4.698437648));
#1847=CARTESIAN_POINT('',(-48.991163737,-61.920319892,-4.652422259));
#1848=CARTESIAN_POINT('',(-49.016869571,-61.914756611,-4.629329103));
#1849=CARTESIAN_POINT('',(-49.042180906,-61.907680496,-4.606235935));
#1850=CARTESIAN_POINT('',(-48.711740201,-61.934705713,-4.807851608));
#1851=CARTESIAN_POINT('',(-48.733191391,-61.937967847,-4.790132534));
#1852=CARTESIAN_POINT('',(-48.754642575,-61.940267618,-4.772243653));
#1853=CARTESIAN_POINT('',(-48.797444927,-61.942932405,-4.736209919));
#1854=CARTESIAN_POINT('',(-48.818796083,-61.94329742,-4.718065077));
#1855=CARTESIAN_POINT('',(-48.861298768,-61.942091099,-4.68160415));
#1856=CARTESIAN_POINT('',(-48.882450283,-61.940519763,-4.663288075));
#1857=CARTESIAN_POINT('',(-48.924454904,-61.935447587,-4.62657012));
#1858=CARTESIAN_POINT('',(-48.945307996,-61.931946749,-4.608168252));
#1859=CARTESIAN_POINT('',(-48.965963109,-61.927488791,-4.589766377));
#1860=CARTESIAN_POINT('',(-48.683262353,-61.955489399,-4.666036198));
#1861=CARTESIAN_POINT('',(-48.693926074,-61.956162659,-4.656902433));
#1862=CARTESIAN_POINT('',(-48.704589796,-61.956636923,-4.647768278));
#1863=CARTESIAN_POINT('',(-48.725917235,-61.957188851,-4.629499696));
#1864=CARTESIAN_POINT('',(-48.736580956,-61.957266515,-4.620365266));
#1865=CARTESIAN_POINT('',(-48.757908287,-61.957025459,-4.602096375));
#1866=CARTESIAN_POINT('',(-48.768571901,-61.956706739,-4.59296191));
#1867=CARTESIAN_POINT('',(-48.789898709,-61.955671953,-4.57469301));
#1868=CARTESIAN_POINT('',(-48.800561906,-61.954955887,-4.565558572));
#1869=CARTESIAN_POINT('',(-48.811224583,-61.954040083,-4.556424135));
#1870=CARTESIAN_POINT('',(-48.668818953,-61.960711035,-4.594323793));
#1871=CARTESIAN_POINT('',(-48.668818953,-61.960711035,-4.594323793));
#1872=CARTESIAN_POINT('',(-48.684800608,-61.960711035,-4.580633754));
#1873=CARTESIAN_POINT('',(-48.684800608,-61.960711035,-4.580633754));
#1874=CARTESIAN_POINT('',(-48.700782264,-61.960711035,-4.566943714));
#1875=CARTESIAN_POINT('',(-48.700782264,-61.960711035,-4.566943714));
#1876=CARTESIAN_POINT('',(-48.716763919,-61.960711035,-4.553253675));
#1877=CARTESIAN_POINT('',(-48.716763919,-61.960711035,-4.553253675));
#1878=CARTESIAN_POINT('',(-48.732745575,-61.960711035,-4.539563635));
#1879=CARTESIAN_POINT('',(-48.732745575,-61.960711035,-4.539563635));
#1880=CARTESIAN_POINT('',(-48.654400699,-61.960711035,-4.522731833));
#1881=CARTESIAN_POINT('',(-48.654400699,-61.960711035,-4.522731833));
#1882=CARTESIAN_POINT('',(-48.654400699,-61.960711035,-4.522731833));
#1883=CARTESIAN_POINT('',(-48.654400699,-61.960711035,-4.522731833));
#1884=CARTESIAN_POINT('',(-48.654400699,-61.960711035,-4.522731833));
#1885=CARTESIAN_POINT('',(-48.654400699,-61.960711035,-4.522731833));
#1886=CARTESIAN_POINT('',(-48.654400699,-61.960711035,-4.522731833));
#1887=CARTESIAN_POINT('',(-48.654400699,-61.960711035,-4.522731833));
#1888=CARTESIAN_POINT('',(-48.654400699,-61.960711035,-4.522731833));
#1889=CARTESIAN_POINT('',(-48.654400699,-61.960711035,-4.522731833));
#1890=B_SPLINE_SURFACE_WITH_KNOTS('',3,3,((#1690,#1691,#1692,#1693,#1694,#1695,#1696,#1697,#1698,#1699),(#1700,#1701,#1702,#1703,#1704,#1705,#1706,#1707,#1708,#1709),(#1710,#1711,#1712,#1713,#1714,#1715,#1716,#1717,#1718,#1719),(#1720,#1721,#1722,#1723,#1724,#1725,#1726,#1727,#1728,#1729),(#1730,#1731,#1732,#1733,#1734,#1735,#1736,#1737,#1738,#1739),(#1740,#1741,#1742,#1743,#1744,#1745,#1746,#1747,#1748,#1749),(#1750,#1751,#1752,#1753,#1754,#1755,#1756,#1757,#1758,#1759),(#1760,#1761,#1762,#1763,#1764,#1765,#1766,#1767,#1768,#1769),(#1770,#1771,#1772,#1773,#1774,#1775,#1776,#1777,#1778,#1779),(#1780,#1781,#1782,#1783,#1784,#1785,#1786,#1787,#1788,#1789),(#1790,#1791,#1792,#1793,#1794,#1795,#1796,#1797,#1798,#1799),(#1800,#1801,#1802,#1803,#1804,#1805,#1806,#1807,#1808,#1809),(#1810,#1811,#1812,#1813,#1814,#1815,#1816,#1817,#1818,#1819),(#1820,#1821,#1822,#1823,#1824,#1825,#1826,#1827,#1828,#1829),(#1830,#1831,#1832,#1833,#1834,#1835,#1836,#1837,#1838,#1839),(#1840,#1841,#1842,#1843,#1844,#1845,#1846,#1847,#1848,#1849),(#1850,#1851,#1852,#1853,#1854,#1855,#1856,#1857,#1858,#1859),(#1860,#1861,#1862,#1863,#1864,#1865,#1866,#1867,#1868,#1869),(#1870,#1871,#1872,#1873,#1874,#1875,#1876,#1877,#1878,#1879),(#1880,#1881,#1882,#1883,#1884,#1885,#1886,#1887,#1888,#1889)),.UNSPECIFIED.,.F.,.F.,.U.,(4,2,2,2,2,2,2,2,2,4),(4,2,2,2,4),(0.,0.000065929,0.000098894,0.000131859,0.000197788,0.000263718,0.000329647,0.000395576,0.000461506,0.000527435),(0.,0.25,0.5,0.75,1.),.UNSPECIFIED.);
#1891=CARTESIAN_POINT('',(-48.909258105,-60.876718998,-5.94668939));
#1892=VERTEX_POINT('',#1891);
#1893=CARTESIAN_POINT('',(-48.654400699,-61.960711035,-4.522731833));
#1894=CARTESIAN_POINT('',(-48.683237207,-61.960711035,-4.665915753));
#1895=CARTESIAN_POINT('',(-48.711987215,-61.939979532,-4.808633836));
#1896=CARTESIAN_POINT('',(-48.739548851,-61.898425958,-4.947165683));
#1897=CARTESIAN_POINT('',(-48.753329669,-61.877649171,-5.016431606));
#1898=CARTESIAN_POINT('',(-48.766865827,-61.85160943,-5.084909578));
#1899=CARTESIAN_POINT('',(-48.780099969,-61.819695261,-5.152613394));
#1900=CARTESIAN_POINT('',(-48.79333411,-61.787781091,-5.220317209));
#1901=CARTESIAN_POINT('',(-48.806321304,-61.749717994,-5.287541591));
#1902=CARTESIAN_POINT('',(-48.818531424,-61.705999703,-5.351994169));
#1903=CARTESIAN_POINT('',(-48.830741545,-61.662281412,-5.416446747));
#1904=CARTESIAN_POINT('',(-48.842268832,-61.612781207,-5.478576343));
#1905=CARTESIAN_POINT('',(-48.852934241,-61.556424662,-5.53812895));
#1906=CARTESIAN_POINT('',(-48.863599649,-61.500068118,-5.597681558));
#1907=CARTESIAN_POINT('',(-48.873451112,-61.436283537,-5.65498081));
#1908=CARTESIAN_POINT('',(-48.881758228,-61.36652606,-5.706997561));
#1909=CARTESIAN_POINT('',(-48.890065344,-61.296768583,-5.759014312));
#1910=CARTESIAN_POINT('',(-48.896998022,-61.219528046,-5.806831988));
#1911=CARTESIAN_POINT('',(-48.901786679,-61.137276896,-5.847428893));
#1912=CARTESIAN_POINT('',(-48.906575335,-61.055025746,-5.888025798));
#1913=CARTESIAN_POINT('',(-48.909258105,-60.96840454,-5.921367192));
#1914=CARTESIAN_POINT('',(-48.909258105,-60.876718998,-5.94668939));
#1915=B_SPLINE_CURVE_WITH_KNOTS('',3,(#1893,#1894,#1895,#1896,#1897,#1898,#1899,#1900,#1901,#1902,#1903,#1904,#1905,#1906,#1907,#1908,#1909,#1910,#1911,#1912,#1913,#1914),.UNSPECIFIED.,.F.,.F.,(4,3,3,3,3,3,3,4),(0.,0.000131859,0.000197788,0.000263718,0.000329647,0.000395576,0.000461506,0.000527435),.UNSPECIFIED.);
#1916=EDGE_CURVE('',#693,#1892,#1915,.T.);
#1917=ORIENTED_EDGE('',*,*,#1916,.F.);
#1918=ORIENTED_EDGE('',*,*,#995,.T.);
#1919=CARTESIAN_POINT('',(-48.909258105,-60.575906033,-4.857518546));
#1920=DIRECTION('',(0.,0.963912706,-0.26621851));
#1921=DIRECTION('',(0.,-0.26621851,-0.963912706));
#1922=AXIS2_PLACEMENT_3D('',#1919,#1920,#1921);
#1923=CIRCLE('',#1922,1.129947595);
#1924=EDGE_CURVE('',#1892,#751,#1923,.T.);
#1925=ORIENTED_EDGE('',*,*,#1924,.F.);
#1926=EDGE_LOOP('',(#1917,#1918,#1925));
#1927=FACE_BOUND('',#1926,.T.);
#1928=ADVANCED_FACE('',(#1927),#1890,.T.);
#1929=CARTESIAN_POINT('',(50.0392057,-60.483442868,-4.522731833));
#1930=DIRECTION('',(1.,0.,0.));
#1931=DIRECTION('',(0.,0.,-1.));
#1932=AXIS2_PLACEMENT_3D('',#1929,#1930,#1931);
#1933=CYLINDRICAL_SURFACE('',#1932,1.477268167);
#1934=ORIENTED_EDGE('',*,*,#706,.F.);
#1935=ORIENTED_EDGE('',*,*,#1916,.T.);
#1936=CARTESIAN_POINT('',(-48.909258105,-60.483442868,-4.522731833));
#1937=DIRECTION('',(-1.,-0.,-0.));
#1938=DIRECTION('',(0.,0.,-1.));
#1939=AXIS2_PLACEMENT_3D('',#1936,#1937,#1938);
#1940=CIRCLE('',#1939,1.477268167);
#1941=EDGE_CURVE('',#498,#1892,#1940,.T.);
#1942=ORIENTED_EDGE('',*,*,#1941,.F.);
#1943=ORIENTED_EDGE('',*,*,#503,.F.);
#1944=ORIENTED_EDGE('',*,*,#1054,.F.);
#1945=EDGE_LOOP('',(#1934,#1935,#1942,#1943,#1944));
#1946=FACE_BOUND('',#1945,.T.);
#1947=ADVANCED_FACE('',(#1946),#1933,.T.);
#1948=CARTESIAN_POINT('',(-48.909258105,-60.483442868,-4.522731833));
#1949=DIRECTION('',(1.,0.,0.));
#1950=DIRECTION('',(0.,0.,-1.));
#1951=AXIS2_PLACEMENT_3D('',#1948,#1949,#1950);
#1952=DEGENERATE_TOROIDAL_SURFACE('',#1951,0.347320572,1.129947595,.T.);
#1953=ORIENTED_EDGE('',*,*,#1924,.T.);
#1954=ORIENTED_EDGE('',*,*,#757,.F.);
#1955=ORIENTED_EDGE('',*,*,#1413,.F.);
#1956=ORIENTED_EDGE('',*,*,#1941,.T.);
#1957=EDGE_LOOP('',(#1953,#1954,#1955,#1956));
#1958=FACE_BOUND('',#1957,.T.);
#1959=ADVANCED_FACE('',(#1958),#1952,.T.);
#1960=CLOSED_SHELL('',(#98,#138,#176,#216,#247,#287,#425,#449,#539,#654,#717,#734,#783,#859,#876,#916,#928,#964,#1000,#1022,#1042,#1062,#1079,#1096,#1113,#1130,
#1147,#1164,#1181,#1198,#1215,#1232,#1257,#1281,#1293,#1305,#1323,#1347,#1365,#1383,#1401,#1419,#1658,#1676,#1689,#1928,#1947,#1959));
#1961=MANIFOLD_SOLID_BREP('drawer',#1960);
#58=STYLED_ITEM('',(),#1961);
#39=SHAPE_REPRESENTATION('Drawer',(#38),#33);
#40=ADVANCED_BREP_SHAPE_REPRESENTATION('Drawer',(#1961),#33);
#1969=SHAPE_REPRESENTATION_RELATIONSHIP('','',#39,#40);
#1970=APPLICATION_CONTEXT('configuration controlled 3D design of mechanical parts and assemblies');
#1971=APPLICATION_PROTOCOL_DEFINITION('international standard','configuration_control_3d_design_ed2_mim',2004,#1970);
#1972=PRODUCT_CONTEXT('',#1970,'mechanical');
#1973=PRODUCT_DEFINITION_CONTEXT('part definition',#1970,'design');
#47=PRODUCT('0','0','',(#1972));
#1974=PRODUCT_RELATED_PRODUCT_CATEGORY('part','',(#47));
#1975=PRODUCT_DEFINITION_FORMATION_WITH_SPECIFIED_SOURCE('','',#47,.NOT_KNOWN.);
#48=PRODUCT_DEFINITION('design','',#1975,#1973);
#46=PRODUCT_DEFINITION_SHAPE('','',#48);
#1976=SHAPE_DEFINITION_REPRESENTATION(#46,#39);
#34=DRAUGHTING_MODEL('',(),#33);
#16=SHAPE_REPRESENTATION('root',(#15,#52),#10);
#24=PRODUCT('root','root','',(#1972));
#1977=PRODUCT_RELATED_PRODUCT_CATEGORY('part','',(#24));
#1978=PRODUCT_DEFINITION_FORMATION_WITH_SPECIFIED_SOURCE('','',#24,.NOT_KNOWN.);
#25=PRODUCT_DEFINITION('design','',#1978,#1973);
#23=PRODUCT_DEFINITION_SHAPE('','',#25);
#1979=SHAPE_DEFINITION_REPRESENTATION(#23,#16);
#11=DRAUGHTING_MODEL('',(),#10);
#1=MECHANICAL_DESIGN_GEOMETRIC_PRESENTATION_REPRESENTATION('',(#58),#10);
ENDSEC;
END-ISO-10303-21;
